<svg xmlns="http://www.w3.org/2000/svg" width="90" height="90" viewBox="0 0 90 90"><path d="M81.653 28.71c0 .9-.73 1.63-1.63 1.63H9.977c-.9 0-1.63-.73-1.63-1.63V17.307c0-.9.73-1.63 1.63-1.63h70.048c.9 0 1.63.73 1.63 1.63V28.71zM81.653 50.702c0 .9-.73 1.63-1.63 1.63H9.977c-.9 0-1.63-.73-1.63-1.63V39.298c0-.9.73-1.63 1.63-1.63h70.048c.9 0 1.63.73 1.63 1.63v11.404zM81.653 72.693c0 .9-.73 1.63-1.63 1.63H9.977c-.9 0-1.63-.73-1.63-1.63V61.29c0-.9.73-1.63 1.63-1.63h70.048c.9 0 1.63.73 1.63 1.63v11.403z"/></svg>