<svg viewBox="0 0 100 100"><symbol viewBox="0 0 100 100" id="icon-info"><title>info</title><path d="M-.037 100l100.036.936L100.335 0 0 .263zm48.525-85.922c4.596 0 7.72 3.493 7.72 7.998 0 4.78-3.4 8.09-7.72 8.09-4.23 0-7.63-3.31-7.63-8.09 0-4.688 3.4-7.998 7.63-7.998zm-12.135 64.81c5.424 0 5.884-.828 5.884-7.63V50.204c0-6.802-.367-7.262-5.884-7.262v-3.676c5.608-.37 11.583-1.84 17.927-4.505l1.563.828v35.76c0 6.71.55 7.538 5.423 7.538v3.86H36.353z"/></symbol><symbol viewBox="0 0 90 90" id="icon-menu"><title>menu</title><path d="M81.653 28.71c0 .9-.73 1.63-1.63 1.63H9.977c-.9 0-1.63-.73-1.63-1.63V17.307c0-.9.73-1.63 1.63-1.63h70.048c.9 0 1.63.73 1.63 1.63V28.71zM81.653 50.702c0 .9-.73 1.63-1.63 1.63H9.977c-.9 0-1.63-.73-1.63-1.63V39.298c0-.9.73-1.63 1.63-1.63h70.048c.9 0 1.63.73 1.63 1.63v11.404zM81.653 72.693c0 .9-.73 1.63-1.63 1.63H9.977c-.9 0-1.63-.73-1.63-1.63V61.29c0-.9.73-1.63 1.63-1.63h70.048c.9 0 1.63.73 1.63 1.63v11.403z"/></symbol><symbol viewBox="0 0 16 16" id="icon-rss"><title>rss</title><path d="M2 0v2c6.663 0 12 5.337 12 12h2C16 6.263 9.737 0 2 0zm0 4v2c4.467 0 8 3.533 8 8h2C12 8.467 7.533 4 2 4zm0 4v2c2.276 0 4 1.724 4 4h2c0-3.324-2.676-6-6-6zm0 4c-1.105 0-2 .895-2 2s.895 2 2 2 2-.895 2-2-.895-2-2-2z"/></symbol></svg>