<svg xmlns="http://www.w3.org/2000/svg" xmlns:xlink="http://www.w3.org/1999/xlink" version="1.1" id="Calque_1" x="0px" y="0px" width="100.0px" height="100px" viewBox="0 0 101 101" enable-background="new 0 0 101 101" xml:space="preserve">
<g>
	<path d="M61.238,47.047c-0.697-1.566-1.674-3.04-2.959-4.325c-1.286-1.284-2.759-2.262-4.325-2.959l-1.94,1.94l-1.348,1.347   l-1.399,1.399c-0.26,0.259-0.481,0.541-0.674,0.836c1.857,0.121,3.595,0.87,4.923,2.199c1.366,1.365,2.076,3.123,2.194,4.912   c0.067,0.994-0.056,1.99-0.375,2.945c-0.354,1.062-0.924,2.063-1.752,2.917c-0.026,0.025-0.041,0.056-0.065,0.081l-1.589,1.587   l-2.204,2.204l-2.056,2.057l-5.359,5.359c-1.45,1.45-3.376,2.247-5.428,2.247c-2.048,0-3.978-0.799-5.428-2.249   c-1.448-1.448-2.246-3.376-2.246-5.426s0.797-3.979,2.247-5.428l5.367-5.368c-0.307-0.952-0.526-1.926-0.661-2.909   c-0.1-0.733-0.168-1.47-0.171-2.209c-0.01-1.358,0.158-2.715,0.472-4.044l-9.77,9.769c-5.625,5.627-5.625,14.751,0,20.378   c2.814,2.812,6.501,4.22,10.188,4.22c3.689,0,7.376-1.407,10.189-4.22l9.755-9.755l1.453-1.451c0.831-0.832,1.525-1.748,2.11-2.71   c0.921-1.51,1.547-3.146,1.86-4.834c0.161-0.868,0.247-1.747,0.247-2.628c0.002-1.075-0.13-2.148-0.368-3.202   C61.922,48.812,61.626,47.915,61.238,47.047z"/>
	<path d="M74.307,26.694c-2.814-2.813-6.502-4.22-10.188-4.22c-3.689,0.001-7.376,1.407-10.189,4.221l-9.754,9.754l-1.453,1.453   c-0.832,0.832-1.525,1.748-2.111,2.709c-0.92,1.51-1.547,3.146-1.861,4.834c-0.161,0.868-0.247,1.748-0.247,2.628   c-0.001,1.075,0.13,2.148,0.368,3.203c0.207,0.914,0.503,1.811,0.891,2.68c0.697,1.565,1.673,3.038,2.959,4.323   s2.758,2.262,4.325,2.96l1.939-1.939l1.348-1.347l1.398-1.398c0.26-0.26,0.482-0.542,0.675-0.838   c-1.858-0.121-3.596-0.869-4.925-2.199c-1.368-1.367-2.078-3.129-2.196-4.922c-0.064-0.991,0.061-1.982,0.378-2.935   c0.352-1.062,0.922-2.064,1.752-2.917c0.025-0.025,0.041-0.055,0.066-0.081l1.588-1.588l2.205-2.204l2.057-2.057l5.358-5.357   c1.45-1.45,3.377-2.249,5.429-2.249c2.05,0,3.978,0.799,5.426,2.248c2.994,2.993,2.994,7.863,0.002,10.855l-5.369,5.368   c0.308,0.953,0.526,1.926,0.661,2.91c0.101,0.733,0.168,1.47,0.171,2.208c0.01,1.359-0.157,2.715-0.474,4.044l9.771-9.769   C79.932,41.445,79.932,32.321,74.307,26.694z"/>
</g>
</svg>