<svg xmlns:dc="http://purl.org/dc/elements/1.1/" xmlns:cc="http://creativecommons.org/ns#" xmlns:rdf="http://www.w3.org/1999/02/22-rdf-syntax-ns#" xmlns:svg="http://www.w3.org/2000/svg" xmlns="http://www.w3.org/2000/svg" version="1.1" width="100" height="100" viewBox="0 0 100 100" id="Ebene_1" xml:space="preserve"><defs id="defs11"/><path d="M -0.03679343,100 L 99.999,100.93566 L 100.33641,0 L 0.001,0.26282809 z M 48.488084,14.078111 C 53.084084,14.078111 56.209084,17.571111 56.209084,22.076111 C 56.209084,26.857111 52.808084,30.165111 48.488084,30.165111 C 44.259084,30.165111 40.857084,26.856111 40.857084,22.076111 C 40.857084,17.388111 44.259084,14.078111 48.488084,14.078111 z M 36.353084,78.887111 C 41.777084,78.887111 42.237084,78.060111 42.237084,71.258111 L 42.237084,50.204111 C 42.237084,43.402111 41.870084,42.942111 36.353084,42.942111 L 36.353084,39.266111 C 41.961084,38.897111 47.936084,37.426111 54.280084,34.761111 L 55.843084,35.588111 L 55.843084,71.348111 C 55.843084,78.059111 56.394084,78.886111 61.266084,78.886111 L 61.266084,82.745111 L 36.353084,82.745111 z" id="path7" style="fill:#000000"/><metadata id="metadata2997"><rdf:RDF><cc:Work rdf:about=""><dc:title/></cc:Work></rdf:RDF></metadata></svg>