<svg xmlns="http://www.w3.org/2000/svg" width="183.2" height="182" viewBox="0 0 183.2 182"><defs><filter id="a" filterUnits="userSpaceOnUse" x="50" y="52.4" width="91" height="88"><feColorMatrix values="1 0 0 0 0 0 1 0 0 0 0 0 1 0 0 0 0 0 1 0"/></filter></defs><ellipse fill="#A3CAE1" cx="95.5" cy="96.4" rx="45.5" ry="44"/><mask maskUnits="userSpaceOnUse" x="50" y="52.4" width="91" height="88" id="b"><g fill="#FFF" filter="url(#a)"><path d="M97.9 67h-1.6c-1.3.7-2.6 1.4-3.8 2.3.4.3.7.7.8 1.1.1.3 0 .5-.2.7-.2 0-.3.2-.5.2.3-1.2 0-2-1-2.5-.4-.2-.7-.3-1.1-.4l-.1.9 1 .8c-.7.1-1.4 0-2.1-.2-.2 0-.4-.2-.6-.2-1.3.7-2.7.8-4.1.4-.1.1-.3.3-.5.4-.6.4-1.3.4-1.8-.2l-.3.1c-.5 1-1.3 1.7-2.5 2-.7-.2-1.3-.7-1.7-1.5 1.1.2 2.2.2 3.2 0-.2-.1-.5-.3-.7-.4-.3-.1-.6-.2-.8-.2-.9-.2-1.8-.4-2.7-.7-1.8-.6-3.7-.4-5.5.5-.8 1.5-2.1 2.6-3.8 3.2-.4.6-.3 1.2.2 1.7.5 0 .9 0 1.4.1.7.1 1.1.6 1.1 1.4.5.2 1 .1 1.5-.2.7-.7.8-1.5.2-2.3.4-1.2 1.2-2 2.3-2.5.2.8 0 1.5-.4 2.1.8.7 1.7.9 2.8.8l-.1.3c-.4.2-.9.3-1.4.1l-.1.8h-1v.7c-.2.7-.7 1-1.4.8-1.1.7-2.4.7-3.6 0l-.4-1 .1 1.1-6.1 3.6c.1 0 .2 0 .4.1.5.2.7.6.8 1.1l-.2.6c-1 .7-2.1 1-3.3.8 0 .7-.1 1.4-.5 2.1.1.2.3.5.5.8.1.2.3.3.5.4 1.1.3 2.1.2 3.1-.4l2.2-3.2c.1 0 .3 0 .5.1.8.1 1.5-.1 2-.7l3.6 3.6.1-1.5-1.2-.9c-.6-.5-.9-1-.8-1.2 1.2.2 2.2.8 3.2 1.6.1 1 .6 1.7 1.5 2.1l-.2.2.8.2v-.2c0-.5-.1-.9-.3-1.4l2.7-.6c-.3-1.5.2-2.5 1.8-2.9 0 .1.1.2.1.3.1.3.3.4.6.5l.3-.8 1.5-.4.1.3-.3.7 2.1 1.7c-1.3.8-2.6.8-4 0-.2.1-.4.2-.7.3-.3.1-.6.1-.9.2-.4.5-1 .7-1.6.7 1.1 1.9 2.6 2.4 4.7 1.7 0 .1.1.3.1.5.4 1.3 0 2.2-1.2 2.8-1.7.1-3.4-.2-4.9-1-.3-.1-.5-.1-.8 0-.2 0-.4.1-.5.2l.1.5-.3.2c-1.6-.1-3-.7-4.3-1.7-.2-.2-.4-.4-.4-.7 0-.1 0-.3-.1-.4l.1-.4c-.9-.3-1.8-.3-2.8.1-1.6.7-3.3.9-5 .5L59.8 89c-.3 1.2-.9 2.2-1.8 3-.6.6-1.2 1.2-1.7 1.9-.3.4-.5.8-.8 1.1.2.5.4 1 .4 1.6 0 .7-.1 1.3-.6 1.8.4 1.8 1.2 3.4 2.4 4.9.5.6 1.2 1 2 1.3 2.3-.1 4.6-.3 6.8-.4.1 0 .3 0 .6.2.4.4.9.6 1.5.6.5.6.6 1.5.3 2.4 0 .2-.1.5-.1.7 1 1 1.7 2.2 2.1 3.6h.1c-.2.4-.2.9 0 1.3 0 .1.1.2.1.4l-1 3c.9 2.1 1.4 4.3 1.6 6.5.8.6 1.3 1.5 1.5 2.5 0 .3.1.6.2.9.5 0 1 .1 1.5.2 1.5.3 2.8-.1 3.8-1.3.9-1 1.5-2.2 1.9-3.6.3-.2.7-.5 1-.8.1-.1.2-.3.2-.4 0-.4 0-.8-.3-1.2l1.4-2.2c.4 0 .9-.2 1.2-.5.1 0 .2-.1.4-.2h.1l.2-2.7c-.4-.4-.7-.9-.8-1.5v-1.7c1-1.9 2.5-3.7 4.1-5.2.6-.5 1-1 1.4-1.8.3-.7.5-1.5.7-2.3l-3.2.4c-1-.5-2-1.5-3-2.5 0-.3-.2-.7-.4-1.1-.1-.1-.1-.3-.2-.4-.1-.2-.3-.3-.5-.5l-2.4-5.9.8.8h.5c1.2 1.3 1.9 2.8 2.3 4.5l1.7 1.7c0 .9.1 1.8.6 2.5l3.7-1.2c.4-.6 1-1.1 1.7-1.3.1 0 .3-.1.5-.1.8-.9 1.4-1.9 1.7-3l-2.2-1.3-.3.4c-1.2.4-2.1 0-2.7-1-.3-.7-.5-1.6-.5-2.4l3 2.1c.3-.1.6-.1 1 0 .1 0 .3.1.5.2.1.1.2.2.3.4h4.4c1 .6 1.7 1.4 2.1 2.5l1.2-.3.2.1c.3 2.7 1.3 5.1 3 7.2.7-.6 1-1.3 1.1-2.1 0-.5 0-1.1-.1-1.7l3.8-3.8c1.3 0 2.3.5 3.1 1.6.2.4.4.9.5 1.5l.6.3.8-.5 1 2.3c-.2.7-.2 1.5 0 2.2 0 .1 0 .2.1.3l.5.3c-.1-1-.1-2-.2-3 1 .1 1.8.5 2.5 1.2.3.3.5.7.5 1.1l1.9-1.7c-.4-1.7-1.1-3.3-2.1-4.9.5-.4 1.1-.5 1.8-.4.2.1.3.1.5.2 1-.5 2-1 3.1-1.5.3-.1.4-.3.6-.6.3-.8.6-1.6.8-2.3l-.5-1.5c-.9-.5-1.4-1.1-1.3-2.1 0-.3 0-.7.2-1-.2-.2-.5-.4-.8-.4h-1.1l-.2-.8 1.2-.7.3.1v.5l.5-.2c1.4.5 2.6 1.5 3.4 2.9l.7-.6-.2-.8c-.5-.2-.9-.5-1.3-.9-.2-.2-.3-.3-.4-.6.5-1 1.2-1.8 2.1-2.5.2-.1.3-.3.4-.6.4-1.3.2-2.5-.7-3.5-.3-.4-.7-.7-1.2-.8-.5-.1-1-.3-1.5-.4-.4-.1-.7-.5-.8-.9-.1-.5 0-1 .4-1.4 1.5-.5 3.1-.7 4.7-.5l-.1-.7 2.4-.5.2-.3h.2c.3.3.5.7.5 1.2 0 .6-.2 1.2-.5 1.8.8 1.2 1.9 2.2 3.1 3 .3-1.2 0-2.2-.8-3.1l-.8-.8-.1-.7c.8-.2 1.6-.4 2.3-.7.3-.1.7-.2 1-.4.2-.1.5-.2.7-.3l-1.8-.8V72l1.5-.4 1.6.5.4-.3c-.2-.3-.5-.5-.9-.5h-.7c-.1 0-.2 0-.3.1l-.1-.2c-2.4-.8-4.8-1.3-7.3-1.5l-.2.5c-1.8.4-3.4.1-4.9-.9-1.9.1-3.8 0-5.6-.4-.6-.2-1.3-.3-2-.3-.9.7-2 1-3.2.9l-1.9-1.3-7.5-.2v-.3l.7-.2-.5-.6-4-.3c-.6 0-1.4.3-2.2.4zM86.1 82.4c.7-.5 1.4-.9 2.1-1.1l.6.6c-.1.3-.3.5-.8.5 0 .6.3 1.1 1 1.6.2.2.5.4.9.6l-.3.2c-.1.7 0 1.4.3 2-.5.5-1.1.5-1.7-.1 0-1.1-.5-2-1.3-2.6-.4-.4-.6-.8-.7-1.2 0-.1 0-.3-.1-.5z"/><path d="M128.5 79.6c.2 0 .3.1.4.1.9.4.7.1-.7-.6 0 .2.1.4.3.5zM128.6 88.3c1.5.5 2.8.3 4-.5l-.6-2.6-.5-.1c-.2.4-.2.9.1 1.4-.7.9-1.7 1.5-3 1.8zM130.3 83.7c0 .1 0 .1.1.1.5.3 1.1.2 1.6-.1.3.1.4.1.2-.1-1.2-.9-1.8-.9-1.9.1zM125.5 99c.7 1.3 1.4 1.6 2.3 1-.7.1-1.1-.1-1.1-.6 0-1.8-.4-2-1.2-.6-.1.1-.1.1 0 .2zM128.5 89.5l.2.1c.5-.4.2-.6-.6-.6.1.3.2.4.4.5zM140 111.4c-1.3-1.2-2.9-2-4.7-2.4l-1 .6-2.1-1c.9 1.2 2.1 2.2 3.6 3-.3.8-.1 1.3.7 1.6.7.1 1.3-.1 1.8-.7l3.2 1.7c-.4-.4-.9-1.1-1.2-1.9-.1-.4-.2-.6-.3-.9zM133.8 115.8v-.5c-.1-.2-.4-.4-.9-.5-.7-.1-1.4 0-2.1.5l-.3 1-.3.1-.8-.5c-1.4.9-2.8 1.8-4.1 2.9-1.1.9-2.3 1.5-3.7 2-.1 1.6-.2 3.2-.3 4.9 0 .5-.2.9-.5 1.3.4.5.9.7 1.5.5.3-.1.6-.2.8-.5h1.9s0-.1.1-.1c1.3-.7 2.8-1.1 4.4-1.2.3.8.9 1.3 1.8 1.4.1-.1.4-.2.5-.3l.9 2.7 1.9.4 2.2-.9c.9-1.1 1.9-2.1 3-3.1.2-.2.5-.4.6-.7.5-.8.7-1.8.7-3l-2.6-3.8v-2.2l-1.3-1.7c-.1 1.1-.5 2.1-1.2 3.1 0 .1-.1.2-.2.3-1.3-.1-2-.8-2-2.1zM128.8 104.5c.4-.4.6-.7.6-.8 0-.4-.1-.5-.2-.5-.4 0-1 .1-1.8.1 0 .1 0 .1.1.1.4.6.9 1 1.3 1.1zM125.2 107.2c-.4-.8-.4-1.7 0-2.5-.1 0-.3-.1-.5-.1-.7 0-1.3.2-1.8.7 0 .3-.2.6-.4.9-.5.5-1.1.7-1.9.7 0 .4.2.9.3 1.2.6 1.3 1.6 1.8 3.1 1.5l1.2-2.4zM125.8 110.7c0 .2.3-.1.9-1 .1.1.1.2.2.4v.3c.4-1.4.3-1.9-.2-1.6h-.1c0-.5 0-.8.3-1-.8.2-1.3.9-1.4 1.9.1.2.3.5.3 1zM117.8 106.9v-.4c-.2-1.1-.9-2-2.1-2.6.2.8.5 1.6.8 2.3.2.6.6.8 1.3.7zM123.2 112.6s.1 0 0 0c-1.3-.9-2.9-1.2-4.6-.9 1.4.9 2.9 1.2 4.6.9zM116.8 110.1c.5.9 1 1.1 1.8.6-.8-2.7-2.6-4.7-5.3-5.7v.1c1.5 1.5 2.6 3.1 3.5 5zM149.9 129.7l-.5-.2c-.8.3-1.5.9-1.9 1.8 1.1.1 1.9-.5 2.4-1.6zM145.9 132.4c.6-.5.8-.9.8-1.1l-4.9 2.5c1.4.2 2.8-.3 4.1-1.4zM133.8 132.6c.4-.2.5-.6.4-1-.1-.4-.5-.3-1.1.3 0 .7.2.9.7.7zM105.4 103.7c.8.5.7.1-.2-1.1v.6c.1.3.1.5.2.5zM85.7 120.4c-.1.5.1 1 .4 1.5.2.2.5.3.9.2 1.5-1.9 2.3-4.1 2.3-6.5l-2.5 1.6c0 .8-.2 1.6-.6 2.6-.2.2-.3.4-.5.6zM21.9 69.6c.2.1.3.2.5.3 1.5.4 3 .2 4.4-.4l-.1-1.1-5.1-.9-2.1 1 3.2.8c-.3.1-.5.2-.8.3z"/><path d="M21 70.6c-.5-.3-1-.5-1.6-.7-1.1-.4-2.2-.4-3.4-.3H7.9c-2 0-3.9.1-5.7.6v.2c-.2.2-.2.3-.3.5-.1.1-.3.2-.5.3-.6.2-1.3.4-2 .4l1.1.2-.2.5c-.1.1-.3.2-.5.3-.6.3-1.2.6-1.9.7l-.9 1.3.8.4v.3l-1.2.4c1.6-.1 3.1-.7 4.5-1.7.3 0 .5.1.8.2.5 0 1-.2 1.5-.6 1.5.3 2.9.9 4.3 1.7L7.5 79c.1.1.3.2.4.4.1.1.2.2.3.4.2.4.1.8-.1 1.1l-.4.1c-.9.7-1.6 1.7-2.1 2.7-.3.6-.5 1.3-.7 2-.1.4 0 .8.1 1.2.8 1.6 1.2 3.4 1.2 5.3l1.7 2.3c-.6-1.4-1-3-1.3-4.6.4.2.7.5 1 .9.5.7.8 1.6.9 2.5.2.1.3.2.4.3.8.7 1.1 1.6.8 2.6.3.3.6.6 1 .9 1.2 1 2.7 1.4 4.4 1.3.9.9 2 1.5 3.3 1.8.2.3.3.7.5 1 .5.9 1.3 1.6 2.3 2l.7-.4-1.1-.2c-.1-.2-.2-.4-.2-.6-.3-.9-.3-1.9 0-2.9-.6-.5-1.4-.7-2.3-.4H18l.6-2.9c-.9.9-2 1.5-3.4 1.7-.9-.4-1.4-1.3-1.5-2.3l1.1-3L17 91l1.9.4c.1-.1.2-.2.4-.2.8-.5 1.8-.6 2.8-.1l.7 2.5c.4-1 .5-2.2.5-3.4.4-.2.7-.4 1.1-.6 1-.6 1.7-1.6 2.1-2.8l2.4-2.1h.6c.1 0 .3-.1.5-.1.4-.2.7-.6.7-1.1 1.1-.7 2.2-1.1 3.5-1.1l-.6.7 1.7-.5c-.4-.3-.7-.6-1.1-.8v-1h-.5c-.4 0-.8.2-1.2.4v-.3c.2-.1.4-.2.5-.3.4-.2.8-.4 1.3-.4 1.7-.2 3.3-.6 4.9-1.2l.4-.6v-.2l-.2-.1h-.9l-.5-3-1.7.8s-.1-.1-.1-.2c-.1-.2-.1-.4-.2-.6-.3-.6-.7-.9-1.4-1.2-1 .1-1.9.6-2.5 1.5v.4c0 .3 0 .7-.2.9-.5.7-1.2 1.2-1.9 1.6 0 .1-.1.3-.1.5s-.1.4-.3.5c-.1.1-.3.1-.4.2L28 78.4v-.6l.2-.3c-1.4-.4-2.5-1.2-3.4-2.4l3-2.6c1.9-.3 3.7-.8 5.5-1.7l.5-.7c-.2-.2-.3-.2-.6-.1-.5.1-.9.3-1.4.5-.5.1-.8 0-1-.5-.1-.4-.3-.7-.4-1-.2 0-.4 0-.5.1-.4.3-.6.7-.6 1.2h-2.4c-1.1-.1-2.3 0-3.4.5-.1 0-.2 0-.4-.1-.7 0-1.4-.1-2.1-.1zm3.7 10.1c.1 0 .1.1.3.1.2.9.8 1.5 1.7 1.8h-.6c-.2.2-.4.4-.7.5h-.1v-.9c-.7 0-1.3.4-2 1-.2.3-.5.5-.8.7.4-1.1 1.2-1.9 2.4-2.4l-2.7-.3c.7-.5 1.5-.7 2.5-.5zM28.4 68.2c.2.4.6.5 1 .2 1.1-.8.7-.9-1-.2zM32.3 68.7c1.4.6 2.6.8 3.6.6.1 0 .1 0 .2.1.5.5 1.1 1 1.8 1.4 0 .1 0 .1-.1.1-.6.2-1.2.5-1.9.7v.1l-.2.1c.3 1.1 1.1 1.5 2.2 1.3l-.5-.1c1.1-.1 1.3-.5.8-1.3v-.1c1.1.1 1.8 0 1.9-.5V71c-.8-.8-1.5-1.6-2.3-2.4h-.2c-.8 0-1.6-.1-2.3-.7-.9.8-1.5.9-1.6.3-.2-.4-.6-.2-1.4.5z"/><path d="M31.8 72.3c.2-.6-.2-.6-1.4-.1.4.3.8.4 1.2.3l.2-.2zM20.6 95.2v.1c1-.2 2-.1 3 .2v.2c.5.6 1 .8 1.7.7-1-1.2-2.5-1.7-4.7-1.2zM26.3 96.7c.1 1.1.6 1.2 1.6.5.4-.4-.1-.5-1.6-.5zM60.7 64.8l.1-.2c-8.1-1.4-14.5-1-19.3 1.1.6.9 1.5 1.2 2.6.8.9.6 1.5 1.5 1.8 2.5 0 .1.1.3.1.4l-1.5 1.5c-.2.9-.1 1.7.5 2.4.2.3.5.5.8.6 1.4-.2 2.4-1 3-2.3 2.3-.8 4.5-1.5 6.8-2.2l-.3-.6 1.1.2-.4-1.2.4.1c1.3-1.3 2.7-2.3 4.3-3.1zM56 71.8c0 .1 0 .1 0 0 .9.8 1.9.8 3.2.2v-.1c-.9-.5-2-.6-3.2-.1zM39.7 64.6c1 .3.6.5-1.2.8-.6 0-1.2.3-2 .7.8.5 1.5.6 2.2.4 2.2-.8 4.4-1.8 6.5-2.7-1.4.4-3.1.6-4.9.7-1.5 0-1.8.1-.6.1zM39.7 81v-.2c-.4-1.5-1.2-1.5-2.6 0v.1c1 .2 1.8.2 2.6.1zM64.7 79.2c-.2-.6-.4-1.2-.5-1.8-.3-1.2-.9-1.7-2-1.3.7.5.9 1.1.8 1.9-.4.5-.4.9.2 1.1.5.1 1 .2 1.5.1zM61.4 77.5c-.2-.7-.7-.5-1.3.7 0 .6.3.8 1 .3.4-.1.5-.5.3-1zM37.4 108.9c-.4 0-.8-.2-.9-.7.8-.7 1-1.6.4-2.7-.8-.7-1.9-1.1-3.2-1.1l-1.5-1.6c-.9-.6-1.9-.8-3-.7-.6-.6-1.4-.8-2.4-.4l-.3.9v-1.5c-1 .3-1.9 1-2.7 1.9l-.5-.1c-.2.7-.2 1.5-.1 2.4 0 .4 0 .7-.2 1.1-.2.9-.7 1.6-1.5 2.2l.2.5c-.3 1-.1 1.8.5 2.6.1.1.2.3.3.5.7 1.5 1.5 3 2.4 4.5 1.2.4 2.2 1 3 2.1l.8 12.1c1.3.8 1.6 1.9.8 3.2.7 1.7 1.9 2.9 3.5 3.6l.7-2.6c-.6-.5-.9-1.2-.7-1.9.1-.7.2-1.5.3-2.3l.1.2c.4-1 1.1-1.5 2.3-1.5.4-.8.2-1.6-.4-2.3l.9.4c2-1.1 2.9-2.9 2.7-5.3 1-.8 2.1-1.4 3.4-1.7 1-1.6 1.3-3.4 1.1-5.3 1.1-.9 1.7-2.2 1.9-3.6-.8-.9-1.8-1.7-3-2.3l-2.1.2c0-.5-.2-.9-.9-1.2-.1 0-.2 0-.3-.1-.4.3-.9.5-1.6.5zM34.4 138.8c.9.1 1.3.1 1.2 0-.8-.9-1.6-1.1-2.2-.8.1.4.5.7 1 .8z"/></g></mask><ellipse mask="url(#b)" fill="#F5F7F7" cx="95.5" cy="96.4" rx="45.5" ry="44"/><radialGradient id="c" cx="84.885" cy="94.427" r="80.627" gradientTransform="matrix(.452 -.727 .777 .452 -9.544 73.494)" gradientUnits="userSpaceOnUse"><stop offset=".559" stop-color="#2C638A" stop-opacity=".1"/><stop offset=".825" stop-color="#286188" stop-opacity=".643"/><stop offset="1" stop-color="#215D84"/></radialGradient><ellipse opacity=".72" fill="url(#c)" cx="95.5" cy="96.4" rx="45.5" ry="44"/><g opacity=".45" fill="#F7AB00"><path d="M11 107.9l4.3-.8-1.4-7 2.9-.6 2 10.1L2 112.9 0 103l2.9-.6 1.4 6.8 4-.8-1.3-6 2.8-.6 1.2 6.1zM3.8 95.8l3.8-2.3-3.9-1.9-.1-3.2L9.8 92l6.5-4.2.1 3.3-4 2.4 4.1 2 .1 3.2-6.5-3.6L3.8 99v-3.2zM5.2 82.5c-.8-.8-1.3-1.8-1.1-3.2.3-2.8 2.5-3.9 5.4-3.6l3.4.4c2.9.3 4.7 2 4.4 4.7-.1 1.2-.7 2.1-1.5 2.6l5.8.7-.4 3-17.5-2 .3-2.6h1.2zm3.5.2l3.3.4c1.3.1 2.3-.5 2.5-1.8.1-1.3-.7-2-2-2.2l-3.4-.4c-1.3-.1-2.3.4-2.4 1.6-.2 1.4.7 2.2 2 2.4zM1.7 67.5l17.1 4.1-.7 2.9L1 70.4l.7-2.9zM18.2 58.3c2.9 1.1 4.1 3.7 3.1 6.5-1 2.8-3.6 4-6.6 2.9l-2.8-1.1c-2.9-1.1-4.1-3.7-3-6.5 1-2.8 3.6-4 6.5-2.9l2.8 1.1zM15.9 65c1.2.5 2.3.1 2.8-1.1.4-1.2-.2-2.2-1.4-2.6L14.1 60c-1.2-.5-2.4-.1-2.8 1.1-.4 1.2.2 2.2 1.4 2.7l3.2 1.2zM23.7 58.2l-11.2-6 1.2-2.3 1.4.5c-.6-1-.8-2.2-.2-3.3.1-.2.2-.4.4-.6l2.6 1.4c-.2.2-.4.6-.6.9-.6 1.1-.5 2.4.9 3.2l6.9 3.7-1.4 2.5zM13.5 40c.5-.8 1.6-1 2.4-.5.8.5 1.1 1.6.5 2.4-.5.8-1.6 1-2.4.5-.8-.5-1-1.5-.5-2.4zm5.2 1.6l10.6 7-1.7 2.5-10.6-7 1.7-2.5zM30.7 46.4L21 38.2l1.7-2 1.1.7c-.3-1.1 0-2.3.9-3.4 1.8-2.1 4.1-1.8 6.3 0l6.3 5.3-2 2.3-6.1-5.2c-1-.8-2.1-.9-2.9 0-.8 1-.6 2.2.4 3l6.1 5.2-2.1 2.3zM33.3 31.3c-1.9-2.2-2.1-4.7 0-6.5 1-.9 2.2-1.1 3.2-.8l-.6-1.1 2-1.7 8.5 10c1.9 2.2 1.5 4.9-.7 6.8-2.2 1.9-4.8 1.9-6.4.1l-.1-.1 2.2-1.9.2.2c.5.6 1.5.7 2.5-.1 1-.9.9-1.9.1-2.9l-1.3-1.5c0 1-.4 1.9-1.3 2.7-2.1 1.8-4.5 1.2-6.4-1l-1.9-2.2zm7.1-2.4l-1.8-2.1c-.8-1-2.1-1.2-3-.4s-.8 2 0 2.9l1.9 2.2c.8 1 1.9 1.3 2.9.4s.9-2 0-3zM51.1 19.1l3.4 6.5-1.7.9-7.9-15.1L53.3 7l.8 1.6-6.7 3.5 2.8 5.4 6.1-3.2.8 1.6-6 3.2zM63.1 21.5L58.7 9.6l1.3-.5.8 1.4c.2-1.3 1.1-2.4 2.4-2.9.2-.1.4-.1.6-.2l.6 1.7c-.2 0-.5.1-.7.2-1.7.6-2.4 2.2-1.7 4l2.8 7.5-1.7.7zM77.5 12.4c.7 3-.7 5.2-3.4 5.9-2.7.6-5-.8-5.7-3.7l-.8-3.3c-.7-3 .7-5.2 3.4-5.9 2.7-.6 5 .8 5.7 3.7l.8 3.3zm-7.3 1.9c.4 1.7 1.7 2.8 3.5 2.4 1.8-.4 2.5-2 2-3.7l-.8-3.5c-.4-1.7-1.7-2.8-3.5-2.4-1.8.4-2.5 2-2 3.7l.8 3.5zM81.1 16.6l-1-12.7 1.4-.1.4 1.5c.6-1.2 1.8-1.9 3.2-2 2.7-.2 4.4 1.5 4.6 4.3l.6 8.3-1.8.1-.6-8.3C87.8 6.1 86.7 4.9 85 5c-1.8.1-2.8 1.6-2.6 3.4l.6 8.1-1.9.1zM92.7 3.3l2.4.1.1-3.4 1.9.1-.2 3.5 2.4.1-.1 1.6-2.4-.1-.5 11-1.9-.1.5-11-2.4-.1.2-1.7zM101.2 8.9l5.9.9-.3 1.7-5.9-.9.3-1.7zM118.5 16.3l-.1.2c-.7 2.6-3 3.6-5.6 2.9-2.7-.8-4-3.1-3.2-5.9l1-3.4c.9-2.9 3.2-4.2 5.9-3.4 2.6.8 3.8 3.1 3 6l-.5 1.8-7.1-2.1-.5 1.7c-.5 1.6.2 3.2 1.9 3.7 1.8.5 3-.3 3.4-1.8l.1-.3 1.7.6zm-6.2-5.3l5.5 1.6.2-.6c.5-1.7-.1-3.4-1.8-3.9-1.8-.5-3.1.5-3.6 2.3l-.3.6zM119.6 21.2L125 9.7l1.3.6-.4 1.5c1.1-.7 2.5-.8 3.8-.2 2.4 1.1 3.1 3.4 1.9 6l-3.5 7.5-1.7-.8 3.5-7.6c.7-1.5.4-3.1-1.2-3.8-1.6-.8-3.2 0-4 1.6l-3.5 7.4-1.6-.7zM137.2 29.4c-1.2.5-2.5.3-3.7-.5-2.2-1.5-2.5-3.9-.9-6.3l2.1-3.2c1.6-2.4 4-3 6.2-1.5 1.1.8 1.7 1.9 1.8 3.1l3.5-5.1 1.5 1-9.9 14.6-1.2-.8.6-1.3zm1.6-2.6l2-3c1-1.5.9-3.2-.6-4.2s-3-.5-3.9.9l-2.2 3.3c-.9 1.4-.9 3 .6 4s3.1.5 4.1-1zM167.2 37.4L152 45.9l-1.9-2.2 7.3-9.2-10.2 5.9-1.9-2.2 10.6-13.8 2.1 2.4-7.4 8.9 10-5.9 1.9 2.2-7.3 9.1 10-6 2 2.3zM163 55.3c-2.5 1.5-5 .7-6.5-1.8-1.5-2.6-.8-5.3 1.9-6.9l2.7-1.5c2.7-1.6 5.4-.8 6.9 1.7 1.4 2.5.7 5.2-2 6.7l-1.8 1.1-3.4-5.9-1.1.7c-1.1.6-1.5 1.8-.9 2.9.6 1.1 1.7 1.2 2.7.6l.2-.1 1.3 2.5zm-.4-7.6l2 3.4.3-.2c1.1-.7 1.6-1.8 1-2.8-.6-1.1-1.8-1.3-3-.6l-.3.2zM161 61.7l-.9-2.4 16.4-6.4 1.1 2.8-5.4 2.1c.9.3 1.7 1 2.1 2.2 1 2.6-.4 4.6-3.1 5.7l-3.2 1.2c-2.7 1-5.1.5-6.1-2.1-.5-1.3-.3-2.4.3-3.3l-1.2.2zm5.9 2.4l3.2-1.2c1.2-.5 1.8-1.4 1.4-2.6-.5-1.2-1.6-1.6-2.8-1.1l-3.1 1.2c-1.2.5-1.8 1.5-1.3 2.7.3 1.2 1.5 1.5 2.6 1zM178.1 85.5l-5.4.7c-3.6.5-6.1-1.5-6.5-5.2l-.7-5.7 16.9-2.2.7 5.7c.5 3.8-1.5 6.2-5 6.7zm1.8-8.8l-11.2 1.4.3 2.5c.2 1.8 1.5 2.7 3.3 2.4l5.3-.7c1.8-.2 2.8-1.4 2.6-3.2l-.3-2.4zM170.9 98.7h-.1c-2.8-.1-4.5-2.2-4.4-5 .1-3 2.2-4.9 5.3-4.8l3.1.1c3.1.1 5 2.2 4.9 5.2-.1 2.8-2.2 4.7-5.3 4.6l-2.1-.1.3-6.8-1.3-.1c-1.3-.1-2.3.7-2.3 1.9-.1 1.2.8 1.9 1.9 2h.2l-.2 3zm3.8-6.7l-.2 4h.3c1.3.1 2.3-.6 2.3-1.8.1-1.3-.9-2.1-2.2-2.1l-.2-.1zM165.7 102.9l13.2-1.4-.6 3.2-9 .6 8.1 3.9-.6 3L165 106l.7-3.1zM165 121.2c-2.7-1-3.8-3.4-2.8-6.1 1-2.8 3.5-4 6.4-3l2.9 1c2.9 1 4.2 3.6 3.2 6.4-1 2.7-3.5 3.9-6.4 2.8l-2-.7 2.3-6.4-1.2-.4c-1.2-.4-2.4 0-2.8 1.2-.4 1.2.1 2.1 1.2 2.5l.2.1-1 2.6zm5.6-5.3l-1.3 3.7.3.1c1.2.4 2.4.1 2.8-1.1.4-1.2-.2-2.2-1.5-2.7h-.3zM174.3 132.1l-15.8-7.8 1.3-2.7 15.8 7.8-1.3 2.7zM156.2 137.4c-2.6-1.7-3.2-4.5-1.6-7s4.4-3.1 7-1.4l2.5 1.6c2.6 1.7 3.2 4.5 1.6 7s-4.4 3.1-7 1.4l-2.5-1.6zm3.7-6c-1.1-.7-2.3-.6-3 .5s-.3 2.2.8 2.9l2.9 1.9c1.1.7 2.3.6 3-.4.7-1.1.3-2.2-.8-2.9l-2.9-2zM157.6 146.1c.2 1.1 0 2.2-.9 3.2-1.9 2.1-4.3 1.7-6.5-.2l-2.5-2.3c-2.1-1.9-2.7-4.4-.9-6.4.8-.9 1.8-1.3 2.8-1.3l-4.3-3.9 2-2.3 13.1 11.8-1.8 1.9-1-.5zm-2.7-2.2l-2.5-2.2c-.9-.9-2.2-.9-3 0-.8.9-.6 2 .3 2.9l2.5 2.3c.9.9 2.1 1 2.9.1.9-1 .7-2.2-.2-3.1zM143.1 145.2l7.5 10.3-2.1 1.6-.9-.9c0 1.1-.5 2.2-1.6 3-1.4 1-2.8 1.1-4 .4.3 1.3-.2 2.7-1.5 3.7-2.2 1.6-4.4.8-6.1-1.4l-4.9-6.6 2.5-1.8 4.8 6.5c.8 1 1.8 1.4 2.8.7 1-.7 1-1.9.4-2.9l-4.8-6.6 2.4-1.8 4.8 6.5c.8 1 1.8 1.4 2.8.7 1-.7 1-1.9.3-3l-4.8-6.5 2.4-1.9zM120.9 163.9c-1.2-2.6-.2-5.1 2.4-6.3 2.7-1.3 5.4-.3 6.7 2.5l1.3 2.8c1.3 2.8.3 5.5-2.4 6.7-2.6 1.2-5.2.2-6.5-2.6l-.9-1.9 6.2-2.9-.5-1.2c-.5-1.2-1.7-1.7-2.8-1.2-1.1.5-1.4 1.6-.9 2.6l.1.2-2.7 1.3zm7.7.3l-3.6 1.7.1.3c.5 1.2 1.6 1.7 2.7 1.2 1.2-.5 1.4-1.7.9-2.9l-.1-.3zM117.2 160.5l3.5 12.3-2.5.7-.5-1.1c-.4 1.1-1.3 1.9-2.6 2.3-2.7.8-4.5-.8-5.2-3.5l-2.3-7.9 2.9-.8 2.2 7.8c.3 1.2 1.2 1.9 2.4 1.6s1.7-1.5 1.3-2.7l-2.2-7.7 3-1zM107.9 176l-2 .3.5 3.4-3 .4-.5-3.4-2 .3-.4-2.6 2-.3-1.4-9.9 3-.4 1.4 9.9 2-.3.4 2.6zM79.9 172.4l1.7.1.2-3.2c.2-3.1 2.4-5.1 5.6-4.9 3.2.2 5.3 2.2 5.1 5.2-.1 2.1-1.2 3.5-3.1 4.1 1.4.8 2.1 2.2 2 4-.2 2.7-2.2 4.4-5 4.2s-4.6-2.1-4.4-4.9v-.3l1.8.1v.4c-.1 1.6.8 2.9 2.6 3 1.9.1 2.9-1 3-2.7.1-1.7-.7-3.1-3.1-3.2l-6.6-.4.2-1.5zm3.7-3.1l-.2 3.2 3.1.2c2.7.2 3.9-1.5 4-3.1.1-2-1-3.5-3.3-3.6-2.2 0-3.5 1.3-3.6 3.3zM59.5 170.4l1.8-5.6c1-3.3 3.8-4.7 7-3.6l5 1.6L68 179l-5-1.6c-3.2-1-4.6-3.7-3.5-7zm7.3 6.3l4.1-12.9-3.2-1c-2.2-.7-4 .4-4.6 2.5l-1.8 5.7c-.7 2.1.1 4 2.3 4.7l3.2 1zM50.7 158l.1-.2c1.2-2.4 3.6-3 6-1.7 2.5 1.3 3.3 3.8 2 6.4l-1.6 3.2c-1.4 2.7-3.9 3.5-6.4 2.2-2.4-1.2-3.2-3.8-1.8-6.5l.9-1.7 6.6 3.4.8-1.6c.8-1.5.4-3.1-1.2-4-1.7-.9-3-.3-3.7 1.1l-.1.3-1.6-.9zm5.1 6.4l-5.1-2.6-.3.6c-.8 1.6-.6 3.3 1 4.1 1.6.8 3.2.1 4-1.5l.4-.6zM47.5 155.5l.3-.4c.7-1 .4-2.4-1-3.5-1.4-1-2.6-.8-3.4.2-.6.8-.5 1.5.2 2.5l1.5 2c.9 1.2 1.5 2.8.4 4.4-1.1 1.6-3.4 1.9-5.5.5-2.1-1.5-2.8-3.7-1.4-5.6l.1-.2 1.4 1-.2.3c-.7 1-.5 2.3.9 3.3.9.7 2.3.9 3.1-.1.5-.7.4-1.4-.2-2.2l-1.3-1.8c-1.1-1.6-1.9-3.1-.6-4.9 1.3-1.9 3.6-2.2 5.8-.6 2.2 1.6 2.9 3.9 1.5 5.8l-.2.3-1.4-1zM29.6 158.9c-.5-.4-.5-1.2-.1-1.7s1.2-.6 1.7-.1.5 1.2.1 1.7-1.1.5-1.7.1zm2.6-4.3l8.4-9.5 1.4 1.2-8.4 9.5-1.4-1.2zM32.3 148.9c-2.1 1.9-4.6 2-6.3 0-1-1.1-1.3-2.4-1-3.6l-1.3.8-.9-1 10-9c2.1-1.9 4.5-1.6 6.3.4 1.8 2 1.9 4.4.2 5.9l-.1.1-1.2-1.3.2-.2c.9-.8 1-2.1-.3-3.4-1.2-1.3-2.7-1.3-3.9-.2l-1.9 1.7c1.2-.1 2.3.4 3.3 1.4 1.8 2 1.5 4.4-.6 6.3l-2.5 2.1zm-2.5-7.8l-2.3 2.1c-1.3 1.2-1.6 2.9-.4 4.3 1.2 1.3 2.8 1.2 4 .1l2.6-2.3c1.2-1.1 1.6-2.7.4-4-1.3-1.4-3-1.3-4.3-.2zM30.5 134.1L19.8 141l-.8-1.2 1.1-1c-1.3 0-2.5-.7-3.3-1.9-1.5-2.3-.8-4.5 1.6-6.1l7-4.5 1 1.5-7 4.5c-1.4.9-2 2.4-1 3.9s2.7 1.7 4.2.7l6.8-4.4 1.1 1.6z"/></g><linearGradient id="d" gradientUnits="userSpaceOnUse" x1="50.723" y1="37.1" x2="60.238" y2="48.249"><stop offset="0" stop-color="#88C3E3"/><stop offset="1" stop-color="#3077A6"/></linearGradient><path fill="url(#d)" d="M47.3 53.4c2.1.5 4 1.5 5.6 2.9l23.9-9.1c-4.5-4.9-10.8-8.2-18-8.9-3.7-.4-7.3 0-10.6.9.6 6.1.1 10.6-.9 14.2z"/><linearGradient id="e" gradientUnits="userSpaceOnUse" x1="79.146" y1="89.543" x2="93.237" y2="80.403"><stop offset="0" stop-color="#3A80B0"/><stop offset="1" stop-color="#10507A"/></linearGradient><path fill="url(#e)" d="M93.6 79.2C91.1 84.5 87 89 82 92.1c-1.1-2.5-1.7-4.7-1.9-6.7-.3-1.8 8.6-5.9 13.5-6.2z"/><linearGradient id="f" gradientUnits="userSpaceOnUse" x1="90.713" y1="78.576" x2="79.774" y2="83.255"><stop offset="0" stop-color="#0B3957"/><stop offset="1" stop-color="#2F688F"/></linearGradient><path fill="url(#f)" d="M79.8 80.8c-.1 1.4 0 3 .2 4.8 4-3.4 7.7-4.7 13.5-6.3-3.4 0-8.3.5-13.7 1.5z"/><linearGradient id="g" gradientUnits="userSpaceOnUse" x1="114.366" y1="41.926" x2="47.725" y2="106.607"><stop offset="0" stop-color="#7CAFCC"/><stop offset="1" stop-color="#2D72A1"/></linearGradient><path fill="url(#g)" d="M89 39.7c-50.6 0-65 48.4-38.5 68.9 2.1 1.6 4.3 2.9 6.7 4l6-13.1c-2.2-4.4-1.8-9.1 3.9-13 5.5-3.7 15.3-6.6 30.6-7.4 9.6-.5 16.5-.2 27.7.3 3.5.2 4.9-1.7 4.9-3.1 0-2.2-2.3-1.6-3.9-1.1-8.7 2.4-9.7-15.7 5.5-11.9 13-8.7-15.8-23.6-42.9-23.6z"/><defs><filter id="h" filterUnits="userSpaceOnUse" x="37.6" y="39.7" width="97.5" height="46.8"><feColorMatrix values="1 0 0 0 0 0 1 0 0 0 0 0 1 0 0 0 0 0 1 0"/></filter></defs><mask maskUnits="userSpaceOnUse" x="37.6" y="39.7" width="97.5" height="46.8" id="j"><g filter="url(#h)"><linearGradient id="i" gradientUnits="userSpaceOnUse" x1="58.464" y1="89.085" x2="114.219" y2="47.329"><stop offset="0"/><stop offset=".166" stop-color="#424242"/><stop offset=".332" stop-color="#7B7B7B"/><stop offset=".49" stop-color="#AAA"/><stop offset=".64" stop-color="#CFCFCF"/><stop offset=".779" stop-color="#E9E9E9"/><stop offset=".903" stop-color="#F9F9F9"/><stop offset="1" stop-color="#FFF"/></linearGradient><path fill="url(#i)" d="M89 39.7c-32.1 0-49.7 19.5-51.4 39l29.5 7.8c5.5-3.7 15.3-6.6 30.6-7.4 9.6-.5 16.5-.2 27.7.3 3.5.2 4.9-1.7 4.9-3.1 0-2.2-2.3-1.6-3.9-1.1-8.7 2.4-9.7-15.7 5.5-11.9 13-8.7-15.8-23.6-42.9-23.6z"/></g></mask><radialGradient id="k" cx="92.208" cy="71.891" r="49.504" gradientTransform="matrix(1 .007 -.005 .652 .335 24.381)" gradientUnits="userSpaceOnUse"><stop offset=".706" stop-color="#FFF" stop-opacity="0"/><stop offset="1" stop-color="#FFF"/></radialGradient><path opacity=".5" mask="url(#j)" fill="url(#k)" d="M89 39.7c-32.1 0-49.6 19.4-51.4 38.8l29.5 7.9c5.5-3.7 15.3-6.6 30.6-7.4 9.6-.5 16.5-.2 27.7.3 3.5.2 4.9-1.7 4.9-3.1 0-2.2-2.3-1.6-3.9-1.1-8.7 2.4-9.7-15.7 5.5-11.9 13-8.6-15.8-23.5-42.9-23.5z"/><defs><filter id="l" filterUnits="userSpaceOnUse" x="45.7" y="39.7" width="89.4" height="46.8"><feColorMatrix values="1 0 0 0 0 0 1 0 0 0 0 0 1 0 0 0 0 0 1 0"/></filter></defs><mask maskUnits="userSpaceOnUse" x="45.7" y="39.7" width="89.4" height="46.8" id="n"><g filter="url(#l)"><radialGradient id="m" cx="113.044" cy="69.142" r="46.623" gradientTransform="matrix(1 0 0 .696 0 21.039)" gradientUnits="userSpaceOnUse"><stop offset="0" stop-color="#FFF"/><stop offset=".089" stop-color="#F8F8F8"/><stop offset=".216" stop-color="#E6E6E6"/><stop offset=".366" stop-color="#C7C7C7"/><stop offset=".533" stop-color="#9C9C9C"/><stop offset=".714" stop-color="#666"/><stop offset=".904" stop-color="#242424"/><stop offset="1"/></radialGradient><path fill="url(#m)" d="M89 39.7c-20.5 0-35.1 8-43.4 18.8l21.5 27.9c5.5-3.7 15.3-6.6 30.6-7.4 9.6-.5 16.5-.2 27.7.3 3.5.2 4.9-1.7 4.9-3.1 0-2.2-2.3-1.6-3.9-1.1-8.7 2.4-9.7-15.7 5.5-11.9 13-8.6-15.8-23.5-42.9-23.5z"/></g></mask><linearGradient id="o" gradientUnits="userSpaceOnUse" x1="90.385" y1="59.405" x2="90.385" y2="76.55"><stop offset="0" stop-color="#4786AF" stop-opacity="0"/><stop offset="1" stop-color="#347199"/></linearGradient><path mask="url(#n)" fill="url(#o)" d="M89 39.7c-20.5 0-35 7.9-43.3 18.7l21.4 28c5.5-3.7 15.3-6.6 30.6-7.4 9.6-.5 16.5-.2 27.7.3 3.5.2 4.9-1.7 4.9-3.1 0-2.2-2.3-1.6-3.9-1.1-8.7 2.4-9.7-15.7 5.5-11.9 13-8.6-15.8-23.5-42.9-23.5z"/><linearGradient id="p" gradientUnits="userSpaceOnUse" x1="92.968" y1="34.9" x2="103.633" y2="63.663"><stop offset="0" stop-color="#FFF"/><stop offset="1" stop-color="#FFF" stop-opacity="0"/></linearGradient><path opacity=".3" fill="url(#p)" d="M134.8 56.7c-2.8-8-24.8-17-45.8-17-10.2 0-18.9 2-26.1 5.2 21.6-3.6 37.5 9.6 33.1 27.3l38.8-15.5z"/><linearGradient id="q" gradientUnits="userSpaceOnUse" x1="118.79" y1="72.627" x2="131.324" y2="59.738"><stop offset="0" stop-color="#114C73"/><stop offset="1" stop-color="#114C73"/></linearGradient><path fill="url(#q)" d="M126.3 75.1c-1.1.2-4.3-1.9-2.9-4.7 1.5-2.9 5.6-5.6 8.4-7.2 1.3-.7 2.7-4.3-2-4.4-4.7-.1-8.1 2.1-9.8 3.9-3.3 3.5-3.7 5.4-7.9 6.4 2.1 1.5 4.1-.5 5.8 2.7.9 1.2 2.4 5.1 8.4 3.3z"/><path fill="#004A75" d="M131.9 59.2c-.5-.2-1.2-.4-2.1-.4-4.7-.1-8.1 2.1-9.8 3.9-3.3 3.5-3.7 5.4-7.9 6.4 2.1 1.5 4.1-.5 5.8 2.7l14-12.6z"/><g><linearGradient id="r" gradientUnits="userSpaceOnUse" x1="117.934" y1="56.43" x2="111.916" y2="61.386"><stop offset="0" stop-color="#145D8C"/><stop offset="1" stop-color="#114C73" stop-opacity="0"/></linearGradient><path fill="url(#r)" d="M119.3 57.1c.1 1.5-1.1 2.7-2.6 2.8-1.5.1-2.7-1.1-2.8-2.6 0-.4 0-.7.2-1 0 0 .5 2.3 2.4 2.3 2.2 0 2.6-2.2 2.6-2.2.2.2.2.5.2.7z"/><linearGradient id="s" gradientUnits="userSpaceOnUse" x1="115.617" y1="58.979" x2="117.666" y2="53.619"><stop offset="0" stop-color="#0A4063"/><stop offset=".996" stop-color="#60A8CC"/></linearGradient><circle fill="url(#s)" cx="116.7" cy="56.2" r="2.7"/><radialGradient id="t" cx="116.695" cy="56.16" r="2.657" gradientUnits="userSpaceOnUse"><stop offset="0" stop-opacity="0"/><stop offset=".853" stop-opacity=".853"/><stop offset="1"/></radialGradient><circle opacity=".3" fill="url(#t)" cx="116.7" cy="56.2" r="2.7"/><circle fill="#9ECFEA" cx="116" cy="55.2" r="1"/></g><g><linearGradient id="u" gradientUnits="userSpaceOnUse" x1="69.207" y1="106.666" x2="92.422" y2="93.591"><stop offset="0" stop-color="#357CAC"/><stop offset="1" stop-color="#628FAB"/></linearGradient><path fill="url(#u)" d="M67.4 105.5c6.8-5.3 14.4-8.6 23.1-9.1-7.7 1.8-14.4 6.5-19.7 12.1-.9-.6-2.6-2.2-3.4-3z"/><linearGradient id="v" gradientUnits="userSpaceOnUse" x1="73.897" y1="129.067" x2="67.781" y2="115.665"><stop offset="0" stop-color="#114C73"/><stop offset="1" stop-color="#0C3552"/></linearGradient><path fill="url(#v)" d="M78.1 133.3c-4.3-5.1-7-11.9-8.4-18.7l-4.5.2c2.5 7.3 7.1 13.8 12.9 18.5z"/></g><g><linearGradient id="w" gradientUnits="userSpaceOnUse" x1="79.826" y1="67.014" x2="63.922" y2="75.246"><stop offset=".002" stop-color="#2E6B91"/><stop offset="1" stop-color="#3E81AB"/></linearGradient><path fill="url(#w)" d="M68.1 68.1c-.5.8-1.2 2-1.7 2.9h.1c.8.5 14 1.5 18.7-2-.2.1-.4-.3-.6-.2-4.2 1.6-12 .5-16.5-.7z"/><linearGradient id="x" gradientUnits="userSpaceOnUse" x1="139.404" y1="-19.637" x2="164.487" y2="-28.819" gradientTransform="matrix(.994 .111 -.111 .994 -80.215 71.681)"><stop offset="0" stop-color="#3A80B0"/><stop offset="1" stop-color="#10507A"/></linearGradient><path fill="url(#x)" d="M87.5 63.6c-1.9-6.5-12.9-9.6-22.9 3.6 12 3.4 23.1.4 22.9-3.6z"/><linearGradient id="y" gradientUnits="userSpaceOnUse" x1="64.533" y1="66.837" x2="87.721" y2="66.837"><stop offset="0" stop-color="#2C638A"/><stop offset="1" stop-color="#1B4564"/></linearGradient><path fill="url(#y)" d="M87.7 65.1c0-.5-.1-1-.3-1.4.1 2.8-6.8 5.6-22.9 3.6.9.9 23.8 6.8 23.2-2.2z"/></g><linearGradient id="z" gradientUnits="userSpaceOnUse" x1="56.648" y1="114.818" x2="99.735" y2="84.451"><stop offset="0" stop-color="#114C73"/><stop offset=".625" stop-color="#2E6A91"/><stop offset=".826" stop-color="#367299" stop-opacity=".462"/><stop offset="1" stop-color="#417DA4" stop-opacity="0"/></linearGradient><path fill="url(#z)" d="M67.1 86.4c5.4-3.7 15.2-6.6 30.3-7.3l.4-6.2c-6.5-.6-13.7-.7-21.2.5-36 5.6-29.9 33.6-21.5 38.1 5 2.7 9.3 3.5 14.3 3.7 1.4 6.8 4.5 12.9 8.8 18 3.1-6.1 4.6-13 4.3-20 4-4.8 6.8-10.6 8.2-16.9-7.7 1.8-14.6 5.8-19.9 11.3-8.3-5.7-13-14.8-3.7-21.2z"/></svg>