<svg xmlns="http://www.w3.org/2000/svg" width="156.3" height="161.2" viewBox="0 0 156.3 161.2"><ellipse fill="#A3CAE1" cx="83.3" cy="85.7" rx="39.8" ry="38.5"/><defs><filter id="a" filterUnits="userSpaceOnUse" x="43.5" y="47.3" width="79.5" height="76.9"><feColorMatrix values="1 0 0 0 0 0 1 0 0 0 0 0 1 0 0 0 0 0 1 0"/></filter></defs><mask maskUnits="userSpaceOnUse" x="43.5" y="47.3" width="79.5" height="76.9" id="b"><g fill="#FFF" filter="url(#a)"><path d="M85.4 60H84c-1.2.6-2.3 1.3-3.3 2 .3.3.6.6.7 1 .1.3 0 .5-.2.6-.2 0-.3.2-.5.2.3-1 0-1.8-.9-2.2-.3-.2-.6-.3-1-.4l-.2.8.9.7c-.6.1-1.3 0-1.9-.2-.2 0-.3-.2-.5-.2-1.2.6-2.3.7-3.5.4-.1.1-.3.3-.4.3-.6.3-1.1.3-1.6-.2l-.3.2c-.4.9-1.2 1.5-2.2 1.7-.6-.2-1.1-.6-1.5-1.3 1 .2 1.9.2 2.8 0-.2-.1-.4-.3-.6-.3-.3-.1-.5-.2-.7-.2-.8-.2-1.6-.3-2.3-.6-1.6-.5-3.2-.4-4.8.4-.7 1.3-1.9 2.3-3.3 2.8-.3.5-.3 1 .2 1.5.4 0 .8 0 1.2.1.6.1 1 .6 1 1.2.5.2.9.1 1.3-.2.6-.6.7-1.3.2-2 .4-1 1.1-1.8 2-2.2.2.7 0 1.3-.3 1.9.7.6 1.5.8 2.5.7l-.1.3c-.4.2-.8.3-1.2.1l-.1.7h-.9v.6c-.2.6-.6.9-1.3.7-1 .6-2.1.6-3.2 0l-.5-.9.1 1-5.3 3.2c.1 0 .2 0 .3.1.4.2.6.5.7 1l-.2.6c-.9.6-1.9.9-2.9.7 0 .6-.1 1.3-.4 1.9.1.2.3.4.4.7.1.2.3.3.4.4 1 .3 1.8.2 2.7-.3l1.9-2.8c.1 0 .3 0 .4.1.7.1 1.3-.1 1.8-.6l3.1 3.1.1-1.3c-.3-.3-.7-.5-1-.8-.5-.5-.8-.9-.7-1.1 1.1.2 1.9.7 2.8 1.4.1.9.5 1.5 1.3 1.8l-.2.2.7.2v-.2c0-.4-.1-.8-.3-1.2l2.3-.5c-.3-1.3.2-2.2 1.6-2.5 0 .1.1.2.1.3.1.3.3.4.6.5l.3-.7 1.3-.3.1.3-.3.6L73 75c-1.2.7-2.3.7-3.5 0l-.6.3c-.3.1-.6.1-.8.2-.4.4-.9.6-1.4.6 1 1.6 2.3 2.1 4.1 1.5 0 .1.1.3.1.5.3 1.1 0 1.9-1.1 2.5-1.5.1-2.9-.2-4.3-.9-.3-.1-.5-.1-.7 0-.2 0-.3.1-.4.2l.1.5-.3.2c-1.4-.1-2.6-.6-3.7-1.5-.2-.2-.3-.4-.4-.6 0-.1 0-.3-.1-.4l.1-.3c-.8-.3-1.6-.3-2.4.1-1.4.6-2.9.8-4.4.4l-1.7 1.5c-.3 1-.8 1.9-1.6 2.6-.6.5-1 1.1-1.5 1.7-.3.3-.5.7-.7 1 .2.4.3.9.4 1.4 0 .6-.1 1.1-.6 1.6.3 1.6 1 3 2.1 4.2.5.6 1.1.9 1.8 1.1 2-.1 4-.3 6-.3.1 0 .3 0 .5.2.4.3.8.6 1.3.6.4.6.5 1.3.3 2.1 0 .2-.1.4-.1.6.9.9 1.5 1.9 1.9 3.1h.1c-.2.4-.2.8 0 1.2 0 .1.1.2.1.3l-.9 2.6c.8 1.8 1.3 3.7 1.4 5.7.7.6 1.1 1.3 1.3 2.2 0 .3.1.6.2.8.5 0 .9.1 1.3.2 1.3.3 2.4-.1 3.3-1.1.8-.9 1.3-1.9 1.6-3.2.3-.2.6-.4.9-.7.1-.1.2-.3.2-.4 0-.4 0-.7-.3-1l1.2-1.9c.4 0 .8-.2 1-.5.1 0 .2-.1.3-.2h.1l.2-2.4c-.4-.4-.6-.8-.7-1.3v-1.5c.9-1.7 2.2-3.2 3.6-4.6.5-.4.9-.9 1.2-1.6.3-.6.5-1.3.6-2l-2.8.4c-.7-.8-1.5-1.7-2.5-2.6 0-.3-.2-.6-.3-1-.1-.1-.1-.3-.2-.3-.1-.2-.3-.3-.4-.4L70 81.1l.7.7h.5c1 1.1 1.7 2.4 2 3.9l1.5 1.5c0 .8.1 1.6.5 2.2l3.2-1.1c.3-.6.9-1 1.5-1.2.1 0 .3-.1.5-.1.7-.8 1.2-1.6 1.5-2.6L80 83.3l-.3.3c-1.1.3-1.9 0-2.3-.9-.3-.6-.5-1.4-.5-2.1l2.6 1.9c.3-.1.6-.1.9 0 .1 0 .3.1.4.2l.3.3h3.8c.9.5 1.5 1.3 1.8 2.2l1.1-.3.2.1c.3 2.4 1.2 4.5 2.6 6.3.6-.5.9-1.1 1-1.9 0-.4 0-1-.1-1.5l3.3-3.3c1.1 0 2 .4 2.7 1.4.2.4.4.8.4 1.3l.5.3.7-.4.9 2c-.2.6-.2 1.3 0 1.9 0 .1 0 .2.1.3l.5.3c-.1-.9-.1-1.7-.2-2.6.9.1 1.6.5 2.2 1.1.3.3.4.6.4 1l1.6-1.5c-.4-1.5-1-2.9-1.9-4.3.5-.3 1-.4 1.6-.3.2.1.3.1.5.2.9-.4 1.8-.9 2.7-1.3.3-.1.4-.3.5-.5.3-.7.5-1.4.7-2l-.4-1.3c-.8-.4-1.2-1-1.2-1.8 0-.3 0-.6.2-.9-.2-.2-.4-.4-.7-.3H105.7l-.2-.7 1-.6.3.1v.5l.5-.2c1.3.5 2.3 1.3 3 2.6l.6-.6-.2-.7c-.4-.2-.8-.4-1.1-.8-.2-.2-.3-.3-.4-.5.4-.9 1-1.6 1.9-2.2.2-.1.3-.3.3-.5.4-1.1.2-2.2-.6-3.1-.3-.4-.6-.6-1-.7-.4-.1-.9-.3-1.3-.4-.4-.1-.6-.4-.7-.8-.1-.5 0-.9.4-1.3 1.3-.4 2.7-.6 4.1-.5l-.1-.6 2.1-.4.2-.3h.2c.3.3.4.6.4 1 0 .6-.2 1.1-.4 1.6.7 1 1.6 1.9 2.7 2.6.3-1 0-1.9-.7-2.7l-.7-.7-.1-.6c.7-.2 1.4-.4 2-.6l.9-.3.6-.3-1.6-.7v-.4l1.3-.4 1.4.5.3-.3c-.2-.3-.4-.4-.8-.5h-.6c-.1 0-.2 0-.3.1l-.1-.2c-2.1-.7-4.2-1.1-6.4-1.3l-.2.4c-1.6.3-3 .1-4.3-.8-1.6.1-3.3 0-4.9-.3-.6-.2-1.2-.3-1.8-.3-.8.6-1.8.9-2.8.8L96.9 61l-6.5-.2v-.3l.6-.2-.4-.5-3.5-.3c-.4.2-1.1.4-1.7.5zM75 73.5c.6-.4 1.2-.8 1.9-1l.5.5c-.1.3-.3.4-.7.4 0 .5.3 1 .9 1.4.2.2.5.4.8.5l-.3.2c-.1.6 0 1.2.3 1.7-.5.5-1 .4-1.5-.1 0-1-.4-1.7-1.1-2.3-.3-.3-.6-.7-.6-1.1-.1.1-.1-.1-.2-.2z"/><path d="M112.1 71c.2 0 .3.1.3.1.8.3.6.1-.6-.6 0 .3.1.4.3.5zM112.2 78.6c1.3.4 2.4.3 3.5-.5l-.6-2.3-.5-.1c-.2.3-.2.8.1 1.2-.6.9-1.4 1.5-2.5 1.7zM113.6 74.6c0 .1 0 .1.1.1.5.3 1 .2 1.4-.1.3.1.4.1.2-.1-1-.8-1.6-.7-1.7.1zM109.4 88c.6 1.1 1.3 1.4 2 .9-.6.1-1-.1-1-.5 0-1.6-.4-1.8-1.1-.6.1.1.1.1.1.2zM112.1 79.7l.2.1c.4-.3.2-.6-.5-.6 0 .3.1.4.3.5zM122.1 98.8c-1.2-1-2.5-1.7-4.1-2.1l-.9.5-1.9-.9c.8 1.1 1.8 1.9 3.1 2.6-.3.7-.1 1.2.6 1.4.6.1 1.2-.1 1.6-.6l2.8 1.5c-.4-.4-.8-1-1.1-1.6.1-.3 0-.6-.1-.8zM116.7 102.7v-.4c-.1-.2-.3-.3-.8-.4-.6-.1-1.2 0-1.8.4l-.3.9-.3.1-.7-.4c-1.3.8-2.4 1.6-3.6 2.5-1 .8-2 1.3-3.2 1.7-.1 1.4-.2 2.8-.3 4.3 0 .4-.2.8-.4 1.1.3.5.8.6 1.3.5.3-.1.5-.2.7-.5h1.6s0-.1.1-.1c1.2-.6 2.5-1 3.8-1 .3.7.8 1.2 1.6 1.2.1-.1.3-.2.5-.3l.8 2.4 1.7.4 1.9-.8c.8-1 1.6-1.9 2.6-2.7l.6-.6c.4-.7.6-1.6.6-2.6l-2.3-3.3v-1.9l-1.1-1.5c-.1 1-.5 1.9-1.1 2.7 0 .1-.1.2-.2.3-1.1-.2-1.7-.9-1.7-2zM112.3 92.8c.4-.3.5-.6.5-.7 0-.3-.1-.5-.2-.4-.3 0-.9.1-1.6.1 0 .1 0 .1.1.1.5.4.9.8 1.2.9zM109.2 95.2c-.3-.7-.3-1.5 0-2.2-.1 0-.3-.1-.5-.1-.6 0-1.1.2-1.6.6 0 .3-.2.6-.4.8-.4.4-1 .6-1.6.6 0 .4.2.8.3 1.1.6 1.2 1.4 1.6 2.7 1.3l1.1-2.1zM109.7 98.2c0 .2.3-.1.8-.9.1.1.1.2.2.4v.3c.4-1.3.3-1.7-.2-1.4h-.1c0-.5 0-.7.3-.9-.7.2-1.1.8-1.3 1.7.2.1.3.4.3.8zM102.7 94.8v-.3c-.2-1-.8-1.8-1.8-2.3.2.7.4 1.4.7 2 .2.6.5.8 1.1.6zM107.4 99.9c.1 0 .1 0 0 0-1.2-.8-2.5-1-4-.8 1.3.8 2.6 1.1 4 .8zM101.9 97.7c.4.8.9 1 1.6.5-.7-2.4-2.3-4.1-4.6-5v.1c1.2 1.3 2.2 2.7 3 4.4zM130.8 114.8l-.4-.2c-.7.3-1.3.8-1.7 1.6.9.1 1.7-.4 2.1-1.4zM127.3 117.2c.5-.4.7-.8.7-1l-4.3 2.2c1.3.2 2.5-.3 3.6-1.2zM116.7 117.3c.3-.2.5-.5.3-.9-.1-.4-.4-.3-1 .3.1.6.3.8.7.6zM91.9 92.1c.7.4.6.1-.2-1v.6c.1.2.1.4.2.4zM74.7 106.7c-.1.5.1.9.3 1.3.2.2.4.3.8.2 1.3-1.6 2-3.5 2-5.7l-2.2 1.4c0 .7-.2 1.4-.6 2.3 0 .1-.2.3-.3.5zM18.9 62.2c.2.1.3.2.4.3 1.3.3 2.6.2 3.9-.4l-.1-1c-1.5-.3-2.9-.5-4.4-.8l-1.9.9 2.8.7c-.3.2-.5.3-.7.3zM18.1 63.1c-.4-.3-.9-.4-1.4-.6-1-.3-1.9-.4-3-.3H6.6c-1.7 0-3.4.1-5 .6v.2c-.1.2-.1.3-.2.4-.1.1-.3.2-.4.3-.6.2-1.1.3-1.8.4l1 .2-.2.4c-.1.1-.3.2-.4.3-.5.3-1 .5-1.6.6l-.7 1.1.7.4v.3l-1.1.4c1.4-.1 2.7-.6 3.9-1.5.3 0 .5.1.7.2.5 0 .9-.2 1.3-.6 1.3.3 2.6.8 3.7 1.5l-.2 3.2c.1.1.3.2.4.3.1.1.2.2.3.4.2.4.1.7-.1 1l-.3.1c-.8.6-1.4 1.5-1.9 2.4-.4.6-.6 1.2-.7 1.7-.1.4 0 .7.1 1.1.7 1.4 1.1 3 1 4.6l1.5 2c-.6-1.3-.9-2.6-1.1-4 .3.2.6.5.9.8.4.6.7 1.4.8 2.2.2.1.3.2.4.3.7.6 1 1.4.7 2.3.3.3.6.5.9.8 1.1.9 2.3 1.2 3.8 1.1.8.8 1.8 1.3 2.9 1.6.2.3.3.6.4.9.5.8 1.2 1.4 2 1.7l.6-.3-1-.2c-.1-.2-.2-.3-.2-.5-.3-.8-.3-1.6 0-2.5-.6-.5-1.3-.6-2-.4l-.3-.2.6-2.5c-.8.8-1.8 1.3-2.9 1.5-.8-.4-1.2-1.1-1.3-2l1-2.6 1.8-1.1 1.7.3c.1-.1.2-.2.3-.2.7-.5 1.6-.5 2.4-.1l.6 2.2c.3-.9.5-1.9.5-2.9.3-.2.6-.3 1-.6.9-.6 1.5-1.4 1.8-2.5l2.1-1.8h.6c.1 0 .3-.1.4-.1.4-.2.6-.5.6-1 1-.6 1.9-1 3-1l-.6.6 1.5-.4c-.3-.3-.6-.5-1-.7V72H29c-.3 0-.7.2-1 .4v-.3c.2-.1.3-.2.5-.3.3-.2.7-.3 1.1-.4 1.5-.2 2.9-.5 4.3-1.1l.3-.5v-.2l-.2-.1h-.8l-.5-2.6-1.5.7s-.1-.1-.1-.2c-.1-.2-.1-.4-.2-.5-.3-.5-.6-.8-1.2-1.1-.9.1-1.6.6-2.2 1.3v.3c0 .3 0 .6-.2.8-.5.6-1 1.1-1.7 1.4 0 .1-.1.3-.1.4 0 .2-.1.3-.3.4-.1.1-.3.1-.3.2l-.7-.6v-.6l.2-.3c-1.2-.4-2.2-1.1-3-2.1l2.6-2.3c1.6-.3 3.2-.7 4.8-1.5l.4-.6c-.2-.2-.3-.2-.5-.1-.4.1-.8.3-1.2.4-.4.1-.7 0-.9-.4-.1-.3-.3-.6-.4-.9-.2.1-.3.1-.4.2-.3.3-.5.6-.5 1.1h-2.1c-1-.1-2 0-2.9.5-.1 0-.2 0-.3-.1-.7-.1-1.3-.2-1.9-.2zm3.3 8.9c.1 0 .1.1.3.1.2.8.7 1.3 1.5 1.6h-.6c-.2.2-.4.3-.6.5h-.1v-.8c-.6 0-1.2.3-1.7.9-.2.3-.5.4-.7.6.4-1 1.1-1.7 2.1-2.1l-2.6-.3c.7-.5 1.5-.7 2.4-.5zM24.6 61.1c.2.4.5.5.9.2.9-.8.6-.8-.9-.2zM27.9 61.5c1.2.6 2.3.7 3.1.5.1 0 .1 0 .2.1.5.4 1 .9 1.6 1.2 0 .1 0 .1-.1.1-.5.2-1 .4-1.6.6v.1l-.2.1c.3 1 1 1.3 1.9 1.1l-.4-.1c1-.1 1.2-.5.7-1.2v-.1c1 .1 1.6 0 1.6-.5v-.1c-.7-.7-1.3-1.4-2-2.1h-.2c-.7 0-1.4-.1-2-.6-.8.7-1.3.8-1.4.3-.1-.2-.4 0-1.2.6z"/><path d="M27.5 64.7c.2-.5-.2-.5-1.2-.1.3.3.7.4 1.1.3l.1-.2zM17.7 84.6v.1c.9-.2 1.8-.1 2.6.2v.2c.4.6.9.7 1.5.6-.8-1.1-2.1-1.5-4.1-1.1zM22.8 85.9c.1 1 .6 1.1 1.4.4.3-.2-.2-.3-1.4-.4zM52.8 58.1l.1-.2c-7.1-1.2-12.7-.9-16.8 1 .5.8 1.3 1.1 2.3.7.8.6 1.3 1.3 1.6 2.2 0 .1.1.3.1.4l-1.3 1.3c-.2.8-.1 1.5.4 2.1.2.3.4.4.7.5 1.2-.2 2.1-.9 2.6-2 2-.7 3.9-1.3 6-1.9l-.3-.5 1 .2-.3-1.1.4.1c.9-1.2 2.1-2.1 3.5-2.8zM48.7 64.2c0 .1 0 .1 0 0 .8.7 1.7.7 2.8.2v-.1c-.8-.5-1.7-.5-2.8-.1zM34.4 57.9c.9.3.5.5-1.1.7-.5 0-1.1.3-1.7.6.7.5 1.3.6 1.9.3 1.9-.7 3.9-1.6 5.7-2.4-1.3.3-2.7.5-4.3.6-1.2.1-1.5.2-.5.2zM34.4 72.2V72c-.3-1.3-1.1-1.3-2.3 0v.1c.9.2 1.6.2 2.3.1zM56.3 70.7c-.2-.5-.3-1.1-.5-1.6-.2-1.1-.8-1.5-1.7-1.1.6.4.8 1 .7 1.6-.4.4-.3.8.2 1 .4.1.9.2 1.3.1zM53.4 69.2c-.2-.6-.6-.4-1.1.6 0 .6.3.7.9.3.3-.1.4-.5.2-.9zM32.4 96.7c-.4 0-.7-.2-.8-.6.7-.6.9-1.4.3-2.3-.7-.6-1.7-1-2.8-1l-1.3-1.4c-.8-.5-1.6-.7-2.6-.6-.6-.6-1.3-.7-2.1-.3l-.1.7v-1.3c-.9.3-1.7.9-2.4 1.6l-.5-.1c-.2.6-.2 1.3-.1 2.1 0 .3 0 .6-.2 1-.2.8-.6 1.4-1.3 1.9l.2.5c-.3.9-.1 1.6.4 2.3.1.1.2.3.3.4.6 1.3 1.3 2.6 2.1 3.9 1 .3 1.9.9 2.6 1.8l.7 10.6c1.1.7 1.4 1.7.7 2.8.6 1.5 1.6 2.5 3.1 3.1l.6-2.3c-.6-.5-.8-1-.6-1.7.1-.6.2-1.3.3-2l.1.2c.3-.9 1-1.3 2-1.3.3-.7.2-1.4-.4-2l.8.3c1.7-1 2.5-2.5 2.4-4.6.9-.7 1.8-1.3 2.9-1.5.9-1.4 1.2-3 1-4.6 1-.8 1.5-1.9 1.6-3.2-.7-.8-1.6-1.5-2.6-2l-1.7.2c0-.5-.2-.8-.8-1-.1 0-.2 0-.3-.1-.4.3-.8.5-1.5.5zM29.8 122.8c.8.1 1.2.1 1 0-.7-.8-1.4-1-1.9-.7.2.4.5.6.9.7z"/></g></mask><ellipse mask="url(#b)" fill="#F5F7F7" cx="83.3" cy="85.7" rx="39.8" ry="38.5"/><radialGradient id="c" cx="71.968" cy="50.268" r="70.488" gradientTransform="matrix(.452 -.727 .777 .452 17.487 78.641)" gradientUnits="userSpaceOnUse"><stop offset=".412" stop-color="#2C638A" stop-opacity=".1"/><stop offset=".764" stop-color="#286188" stop-opacity=".639"/><stop offset="1" stop-color="#215D84"/></radialGradient><ellipse opacity=".72" fill="url(#c)" cx="83.3" cy="85.7" rx="39.8" ry="38.5"/><g opacity=".45" fill="#1147A5"><path d="M40.4 141.3l2.1-3.2-5.2-3.5 1.4-2.1 7.5 5-8.2 12.4-7.3-4.9 1.4-2.1 5 3.4 2-2.9-4.5-3 1.4-2.1 4.4 3zM28.5 138.2l.9-3.7-3.6 1.2-2.1-1.9 6.1-1.7 1.4-6.6 2.1 2-.9 4 3.8-1.3 2.1 1.9-6.2 1.8-1.4 6.3-2.2-2zM21.2 129.2c-1 0-1.9-.3-2.7-1.3-1.5-1.9-.9-4 1.1-5.5l2.3-1.8c2-1.6 4.2-1.7 5.7.2.7.8.9 1.7.7 2.6l4-3.2 1.7 2.1-12.1 9.6-1.4-1.8.7-.9zm2.2-2.1l2.3-1.8c.9-.7 1.1-1.7.4-2.6-.7-.9-1.7-.8-2.5-.1l-2.3 1.8c-.9.7-1.2 1.6-.5 2.5.7.9 1.7.9 2.6.2zM9.7 122l13.1-8 1.4 2.3-13.1 8-1.4-2.3zM14.2 106.2c2.5-1.1 4.8-.3 5.9 2.1 1.1 2.4.3 4.7-2.2 5.9l-2.4 1.1c-2.5 1.1-4.8.2-5.9-2.1-1.1-2.4-.2-4.7 2.2-5.8l2.4-1.2zm2.8 5.5c1-.5 1.5-1.4 1.1-2.4-.5-1-1.5-1.2-2.5-.8l-2.7 1.3c-1 .5-1.5 1.4-1.1 2.4.5 1 1.5 1.2 2.5.8l2.7-1.3zM17.6 102.7l-10.7 3.2-.7-2.2 1.2-.6c-1-.2-1.8-.9-2.2-1.9-.1-.2-.1-.4-.1-.6l2.5-.7c0 .3.1.6.2.9.3 1.1 1.2 1.8 2.5 1.4l6.5-2 .8 2.5zM0 97.8c-.2-.8.4-1.6 1.2-1.8.8-.2 1.6.3 1.8 1.2.2.8-.4 1.6-1.2 1.8-.8.1-1.6-.4-1.8-1.2zm4.2-2.3l10.9-2.3.5 2.6-10.8 2.3-.6-2.6zM14.6 91.1L3.5 92l-.2-2.3 1.1-.3c-.8-.5-1.4-1.4-1.5-2.6-.2-2.4 1.4-3.7 3.9-3.9l7.2-.6.2 2.6-7 .6c-1.1.1-1.9.7-1.8 1.8.1 1.1 1 1.7 2.1 1.6l7-.6.1 2.8zM6.9 80.1c-2.5-.2-4.2-1.6-4-4 .1-1.2.7-2 1.5-2.5l-1-.3.2-2.3 11.3 1c2.5.2 4 2.1 3.8 4.6-.2 2.6-1.8 4.2-3.9 4h-.1l.2-2.5h.2c.7.1 1.3-.5 1.4-1.6.1-1.2-.6-1.8-1.7-1.9l-1.7-.1c.6.6.9 1.5.8 2.5-.2 2.4-2.1 3.5-4.6 3.3l-2.4-.2zm2.9-5.9L7.4 74c-1.1-.1-2 .5-2.1 1.6-.1 1.1.7 1.7 1.8 1.8l2.5.2c1.1.1 2-.4 2.1-1.5 0-1-.7-1.8-1.9-1.9zM10.3 61.5l6.2 1.9-.5 1.7-14.3-4.5 2.5-7.9 1.5.5-2 6.3 5.1 1.6 1.8-5.8 1.5.5-1.8 5.7zM19.2 55.6L9.1 51l.5-1.1 1.4.3c-.7-1-.8-2.1-.3-3.3.1-.2.2-.3.3-.5l1.4.7-.3.6c-.6 1.4-.1 2.8 1.4 3.5l6.4 2.9-.7 1.5zM22.5 41.1c2.3 1.4 2.8 3.7 1.5 5.8-1.3 2.1-3.6 2.6-5.8 1.2l-2.5-1.5c-2.3-1.4-2.8-3.7-1.5-5.8 1.3-2.1 3.6-2.6 5.8-1.2l2.5 1.5zm-3.3 5.7c1.3.8 2.8.7 3.6-.7.8-1.3.3-2.7-1-3.6l-2.7-1.7c-1.3-.8-2.8-.7-3.6.7-.8 1.3-.3 2.7 1 3.6l2.7 1.7zM27.3 41.5l-8.4-7.2.8-.9 1.2.7c-.3-1.1-.1-2.3.7-3.2 1.5-1.8 3.6-1.8 5.5-.2l5.5 4.7-1 1.2-5.6-4.8c-1.1-.9-2.5-1.1-3.5.1-1 1.2-.7 2.7.4 3.7l5.4 4.6-1 1.3zM26.3 26.1l1.5-1.4-2-2.2 1.2-1.1 2 2.2 1.5-1.4.9 1-1.4 1.5 6.5 7.1-1.2 1.1-6.5-7.1-1.5 1.4-1-1.1zM35 24.3l4.2-3.1.9 1.2-4.2 3.1-.9-1.2zM50.2 18.2l.1.1c1.1 2.1.4 4.1-1.7 5.2-2.1 1.2-4.4.6-5.6-1.7l-1.5-2.7c-1.3-2.3-.6-4.6 1.5-5.8 2.1-1.1 4.3-.5 5.6 1.9l.8 1.5-5.7 3.1.8 1.4c.7 1.3 2.1 1.8 3.5 1.1 1.4-.8 1.7-2.1 1-3.2l-.1-.2 1.3-.7zm-7.1.5l4.4-2.4-.3-.5c-.8-1.4-2.1-2-3.5-1.3-1.4.8-1.6 2.3-.9 3.7l.3.5zM54 20.6l-3.8-10.5 1.2-.4.7 1.2c.3-1.1 1-2 2.2-2.5 2.2-.8 4 .2 4.9 2.6l2.5 6.8-1.5.5-2.5-6.9c-.5-1.3-1.6-2.1-3.1-1.6s-2 2-1.4 3.4l2.4 6.7-1.6.7zM70 14.7c-.5 1-1.4 1.8-2.6 2-2.3.4-4-.9-4.4-3.3l-.6-3.3c-.5-2.5.6-4.3 2.9-4.7 1.2-.2 2.2.1 3 .8l-1-5.3 1.6-.3 2.9 15.1-1.2.2-.6-1.2zm-.7-2.6L68.7 9c-.3-1.5-1.4-2.5-3-2.2-1.5.3-2.1 1.6-1.9 3l.7 3.4c.3 1.4 1.3 2.4 2.8 2.1 1.6-.4 2.3-1.7 2-3.2zM93.4 1.1l-4.1 14.7-2.5-.2-1.2-10.3-2.6 10-2.5-.2L78.6 0l2.7.2 1 10.1L84.8.5l2.5.2 1.1 10.1L90.8.9l2.6.2zM101.9 14.8c-.6 2.5-2.7 3.5-5.1 2.9-2.5-.7-3.8-2.8-3.1-5.4l.7-2.6c.7-2.6 2.8-3.9 5.4-3.2 2.4.6 3.6 2.8 2.9 5.4l-.5 1.8-5.8-1.5-.3 1.1c-.3 1.1.2 2.1 1.2 2.3 1 .3 1.8-.3 2.1-1.3v-.2l2.5.7zM97 10.3l3.3.9.1-.3c.3-1.1-.1-2.1-1.1-2.3-1.2-.3-2 .3-2.3 1.4v.3zM104.6 20l-2.1-.9L108.7 5l2.4 1.1-2.1 4.7c.8-.4 1.7-.4 2.7 0 2.2 1 2.6 3.1 1.6 5.4l-1.2 2.7c-1 2.3-2.9 3.5-5.1 2.5-1.1-.5-1.7-1.3-1.9-2.2l-.5.8zm5.2-2.2l1.2-2.7c.4-1 .3-2-.8-2.4-1-.4-2 0-2.4 1.1l-1.2 2.6c-.4 1-.2 2.1.8 2.5 1.1.4 1.9-.1 2.4-1.1zM129.9 24.1l-2.9 3.8c-1.9 2.5-4.6 2.8-7.2.8l-4-3.1 9.1-11.8 4 3.1c2.6 2 2.9 4.7 1 7.2zm-4.4-6.6l-6 7.8 1.8 1.4c1.3 1 2.6.7 3.5-.5l2.8-3.7c1-1.3.9-2.6-.4-3.6l-1.7-1.4zM133.6 36.7c-1.9 1.7-4.2 1.5-5.9-.3-1.8-1.9-1.7-4.4.3-6.2l2-1.8c2-1.8 4.5-1.7 6.2.2 1.7 1.8 1.6 4.3-.5 6.1l-1.4 1.2-4-4.4-.8.8c-.8.8-1 1.8-.2 2.6.7.8 1.7.7 2.4 0l.1-.1 1.8 1.9zm-1.8-6.5l2.3 2.5.2-.2c.8-.8 1-1.8.3-2.6-.8-.8-1.8-.7-2.6 0l-.2.3zM133 42.6l7.3-9 1.6 2.4-5.2 5.9 7.4-2.6 1.5 2.2-11.1 3.4-1.5-2.3zM143.9 54.2c-2.3 1.1-4.4.2-5.5-2-1.1-2.3-.3-4.7 2.1-5.8l2.4-1.2c2.5-1.2 4.8-.3 5.9 2 1.1 2.2.2 4.5-2.2 5.7l-1.7.8-2.6-5.4-1 .5c-1 .5-1.5 1.5-1 2.5s1.4 1.2 2.3.8l.1-.1 1.2 2.2zm.2-6.7l1.5 3.1.2-.1c1-.5 1.5-1.4 1.1-2.4-.5-1-1.5-1.2-2.5-.7l-.3.1zM156.3 55.2l-14.6 5-.9-2.5 14.6-5 .9 2.5zM148.4 69.7c-2.7.6-4.7-.8-5.3-3.3-.5-2.6.8-4.7 3.5-5.2l2.6-.6c2.7-.6 4.8.8 5.3 3.4.5 2.6-.8 4.6-3.5 5.2l-2.6.5zm-1.4-6c-1.1.2-1.8 1-1.5 2.1.2 1.1 1.2 1.5 2.3 1.3l3-.6c1.1-.2 1.8-1 1.6-2.1-.2-1.1-1.2-1.5-2.3-1.3l-3.1.6zM154.7 74.2c.8.5 1.4 1.4 1.4 2.6.1 2.4-1.6 3.7-4.1 3.9l-3 .2c-2.5.1-4.4-1-4.5-3.4-.1-1.1.3-1.9.9-2.5l-5.1.3-.1-2.7 15.4-.8.1 2.3-1 .1zm-3.1.4l-2.9.1c-1.1.1-1.9.8-1.9 1.9.1 1.1.9 1.6 2 1.6l3-.2c1.1-.1 1.9-.7 1.8-1.8 0-1-.8-1.7-2-1.6zM145.2 82.7l11 1.7-.3 2.3h-1.1c.7.7 1.1 1.7.9 2.9-.2 1.5-1.1 2.4-2.3 2.7 1 .7 1.6 1.8 1.3 3.2-.4 2.4-2.2 3.2-4.6 2.9l-7.1-1.1.4-2.6 7 1.1c1.1.2 2-.3 2.2-1.3.2-1-.5-1.8-1.6-2l-7.1-1.1.4-2.6 7 1.1c1.1.2 2-.3 2.2-1.3.2-1-.6-1.8-1.7-2l-6.9-1.1.3-2.8zM143 107.9c-2.4-.9-3.3-3-2.4-5.4.9-2.4 3.1-3.5 5.7-2.6l2.5.9c2.6.9 3.6 3.2 2.7 5.6-.9 2.3-3.1 3.3-5.6 2.4l-1.7-.6 2-5.6-1.1-.4c-1-.4-2.1 0-2.4 1-.4 1 .1 1.8 1.1 2.2l.1.1-.9 2.4zm4.9-4.5l-1.2 3.2.3.1c1.1.4 2.1.1 2.4-.9.4-1.1-.2-1.9-1.3-2.3l-.2-.1zM138.6 108.1l9.7 5.4-1.1 2-1-.4c.4.9.4 2-.2 3-1.2 2.1-3.2 2.3-5.4 1.1l-6.3-3.5 1.3-2.3 6.2 3.4c1 .5 2 .4 2.5-.5.5-1 .1-2-.9-2.5l-6.1-3.4 1.3-2.3zM142.4 123.4l-1.1 1.4 2.4 1.8-1.6 2.1-2.4-1.8-1.1 1.4-1.8-1.4 1.1-1.4-7-5.2 1.6-2.1 7 5.2 1.1-1.4 1.8 1.4zM122.9 138.5l1.1-1-1.9-2.1c-1.8-2.1-1.6-4.6.4-6.4 2.1-1.9 4.7-1.9 6.4.1 1.2 1.4 1.4 3 .6 4.5 1.4-.4 2.7.1 3.7 1.2 1.6 1.8 1.4 4.1-.5 5.7-1.9 1.6-4.1 1.5-5.8-.3l-.2-.2 1.2-1.1.2.3c.9 1.1 2.3 1.3 3.5.2 1.2-1.1 1.2-2.4.2-3.6-1-1.1-2.3-1.5-3.9-.1l-4.3 3.8-.7-1zm.4-4.1l1.9 2.1 2-1.8c1.8-1.6 1.5-3.3.5-4.4-1.2-1.3-2.8-1.5-4.3-.2-1.3 1.3-1.3 2.9-.1 4.3zM109 149.9l-2.4-4.6c-1.4-2.7-.5-5.2 2.1-6.6l4.1-2.1 6.8 13.3-4.1 2.1c-2.5 1.4-5.1.6-6.5-2.1zm8.5-.6l-5.4-10.5-2.6 1.3c-1.8.9-2.2 2.7-1.3 4.4l2.4 4.7c.9 1.7 2.5 2.4 4.3 1.5l2.6-1.4zM96 147.7v-.2c-.7-2.2.4-4.1 2.6-4.8 2.3-.7 4.4.3 5.2 2.7l.9 3c.8 2.5-.3 4.6-2.6 5.4-2.2.7-4.3-.4-5.1-2.9l-.5-1.6 6.2-2-.5-1.5c-.4-1.4-1.7-2.2-3.2-1.7-1.6.5-2 1.7-1.6 3l.1.2-1.5.4zm7.1.8l-4.7 1.5.2.5c.5 1.5 1.7 2.4 3.2 1.9 1.5-.5 2-1.9 1.5-3.4l-.2-.5zM92.4 148.1l-.1-.4c-.2-1.1-1.2-1.8-2.8-1.5-1.5.2-2.1 1.1-2 2.2.1.9.6 1.3 1.7 1.4l2.1.3c1.3.2 2.6.8 2.9 2.5.3 1.7-.9 3.3-3.1 3.7-2.2.4-4-.6-4.3-2.6v-.2l1.5-.2v.3c.2 1 1.1 1.7 2.6 1.4 1-.2 2-.9 1.8-2-.1-.7-.6-1.1-1.5-1.2l-1.9-.3c-1.7-.3-3.1-.7-3.4-2.6-.3-2 .9-3.6 3.2-4 2.3-.4 4.2.6 4.5 2.7v.3l-1.2.2zM83.5 161.2c-.6 0-1.1-.4-1.1-1s.4-1.1 1-1.1 1.1.4 1.1 1-.4 1.1-1 1.1zm-1.1-4.1l-.6-11.1 1.6-.1.6 11.1-1.6.1zM79 153.4c-.1 2.5-1.6 4-3.9 3.9-1.3-.1-2.3-.7-2.8-1.7l-.3 1.3-1.2-.1.6-11.7c.1-2.5 1.8-3.8 4.2-3.6 2.4.1 3.9 1.5 3.8 3.5v.1l-1.5-.1v-.2c.1-1-.7-1.9-2.3-2-1.5-.1-2.4.8-2.5 2.3l-.1 2.2c.7-.8 1.7-1.2 2.9-1.2 2.3.1 3.6 1.8 3.5 4.3l-.4 3zm-6.4-3.2l-.1 2.7c-.1 1.5.8 2.8 2.4 2.9 1.6.1 2.4-1 2.5-2.4l.2-3.1c.1-1.5-.7-2.6-2.2-2.7-1.7-.1-2.7 1-2.8 2.6zM68.7 145.4l-2.4 10.9-1.2-.3v-1.3c-.8.8-2 1.2-3.2.9-2.3-.5-3.3-2.3-2.7-4.8l1.6-7.1 1.6.3-1.6 7.1c-.3 1.4.2 2.7 1.8 3 1.5.3 2.7-.6 3.1-2.1l1.5-6.9 1.5.3z"/></g><linearGradient id="d" gradientUnits="userSpaceOnUse" x1="44.088" y1="33.867" x2="52.406" y2="43.614"><stop offset="0" stop-color="#88C3E3"/><stop offset="1" stop-color="#3077A6"/></linearGradient><path fill="url(#d)" d="M41.1 48.1c1.8.4 3.5 1.3 4.9 2.5l20.9-7.9c-4-4.3-9.5-7.2-15.7-7.8-3.2-.3-6.4 0-9.3.8.5 5.3.1 9.2-.8 12.4z"/><linearGradient id="e" gradientUnits="userSpaceOnUse" x1="68.936" y1="79.715" x2="81.255" y2="71.724"><stop offset="0" stop-color="#3A80B0"/><stop offset="1" stop-color="#10507A"/></linearGradient><path fill="url(#e)" d="M81.6 70.6c-2.2 4.7-5.8 8.6-10.2 11.3-1-2.2-1.5-4.1-1.7-5.9-.2-1.5 7.6-5 11.9-5.4z"/><linearGradient id="f" gradientUnits="userSpaceOnUse" x1="79.048" y1="70.127" x2="69.485" y2="74.218"><stop offset="0" stop-color="#0B3957"/><stop offset="1" stop-color="#2F688F"/></linearGradient><path fill="url(#f)" d="M69.5 72c0 1.2 0 2.6.2 4.2 3.5-3 6.8-4.1 11.8-5.5-3 0-7.3.5-12 1.3z"/><linearGradient id="g" gradientUnits="userSpaceOnUse" x1="99.727" y1="38.086" x2="41.466" y2="94.633"><stop offset="0" stop-color="#7CAFCC"/><stop offset="1" stop-color="#2D72A1"/></linearGradient><path fill="url(#g)" d="M77.6 36.1c-44.3 0-56.8 42.3-33.6 60.3 1.8 1.4 3.8 2.6 5.8 3.5L55 88.4c-1.9-3.9-1.6-8 3.4-11.4 4.8-3.3 13.4-5.8 26.8-6.4 8.4-.4 14.5-.2 24.2.2 3.1.1 4.2-1.5 4.2-2.7 0-1.9-2-1.4-3.4-1-7.6 2.1-8.5-13.8 4.8-10.4 11.4-7.5-13.8-20.6-37.4-20.6z"/><defs><filter id="h" filterUnits="userSpaceOnUse" x="32.7" y="36.1" width="85.2" height="40.9"><feColorMatrix values="1 0 0 0 0 0 1 0 0 0 0 0 1 0 0 0 0 0 1 0"/></filter></defs><mask maskUnits="userSpaceOnUse" x="32.7" y="36.1" width="85.2" height="40.9" id="j"><g filter="url(#h)"><linearGradient id="i" gradientUnits="userSpaceOnUse" x1="50.855" y1="79.314" x2="99.598" y2="42.81"><stop offset="0"/><stop offset=".166" stop-color="#424242"/><stop offset=".332" stop-color="#7B7B7B"/><stop offset=".49" stop-color="#AAA"/><stop offset=".64" stop-color="#CFCFCF"/><stop offset=".779" stop-color="#E9E9E9"/><stop offset=".903" stop-color="#F9F9F9"/><stop offset="1" stop-color="#FFF"/></linearGradient><path fill="url(#i)" d="M77.6 36.1c-28.1 0-43.4 17.1-44.9 34.1L58.4 77c4.8-3.3 13.4-5.8 26.8-6.4 8.4-.4 14.5-.2 24.2.2 3.1.1 4.2-1.5 4.2-2.7 0-1.9-2-1.4-3.4-1-7.6 2.1-8.5-13.8 4.8-10.4 11.4-7.5-13.8-20.6-37.4-20.6z"/></g></mask><radialGradient id="k" cx="80.355" cy="64.283" r="43.278" gradientTransform="matrix(1 .007 -.005 .652 .3 21.815)" gradientUnits="userSpaceOnUse"><stop offset=".706" stop-color="#FFF" stop-opacity="0"/><stop offset="1" stop-color="#FFF"/></radialGradient><path opacity=".5" mask="url(#j)" fill="url(#k)" d="M77.6 36.1c-28 0-43.3 17-44.9 34L58.4 77c4.8-3.3 13.4-5.8 26.8-6.4 8.4-.4 14.5-.2 24.2.2 3.1.1 4.2-1.5 4.2-2.7 0-1.9-2-1.4-3.4-1-7.6 2.1-8.5-13.8 4.8-10.4 11.4-7.5-13.8-20.6-37.4-20.6z"/><defs><filter id="l" filterUnits="userSpaceOnUse" x="39.7" y="36.1" width="78.2" height="40.9"><feColorMatrix values="1 0 0 0 0 0 1 0 0 0 0 0 1 0 0 0 0 0 1 0"/></filter></defs><mask maskUnits="userSpaceOnUse" x="39.7" y="36.1" width="78.2" height="40.9" id="n"><g filter="url(#l)"><radialGradient id="m" cx="98.571" cy="61.879" r="40.759" gradientTransform="matrix(1 0 0 .696 0 18.829)" gradientUnits="userSpaceOnUse"><stop offset="0" stop-color="#FFF"/><stop offset=".089" stop-color="#F8F8F8"/><stop offset=".216" stop-color="#E6E6E6"/><stop offset=".366" stop-color="#C7C7C7"/><stop offset=".533" stop-color="#9C9C9C"/><stop offset=".714" stop-color="#666"/><stop offset=".904" stop-color="#242424"/><stop offset="1"/></radialGradient><path fill="url(#m)" d="M77.6 36.1c-18 0-30.7 7-37.9 16.4L58.4 77c4.8-3.3 13.4-5.8 26.8-6.4 8.4-.4 14.5-.2 24.2.2 3.1.1 4.2-1.5 4.2-2.7 0-1.9-2-1.4-3.4-1-7.6 2.1-8.5-13.8 4.8-10.4 11.4-7.5-13.8-20.6-37.4-20.6z"/></g></mask><linearGradient id="o" gradientUnits="userSpaceOnUse" x1="78.761" y1="53.367" x2="78.761" y2="68.356"><stop offset="0" stop-color="#4786AF" stop-opacity="0"/><stop offset="1" stop-color="#347199"/></linearGradient><path mask="url(#n)" fill="url(#o)" d="M77.6 36.1C59.7 36.1 47 43 39.7 52.5L58.4 77c4.8-3.3 13.4-5.8 26.8-6.4 8.4-.4 14.5-.2 24.2.2 3.1.1 4.2-1.5 4.2-2.7 0-1.9-2-1.4-3.4-1-7.6 2.1-8.5-13.8 4.8-10.4 11.4-7.5-13.8-20.6-37.4-20.6z"/><linearGradient id="p" gradientUnits="userSpaceOnUse" x1="81.019" y1="31.944" x2="90.343" y2="57.09"><stop offset="0" stop-color="#FFF"/><stop offset="1" stop-color="#FFF" stop-opacity="0"/></linearGradient><path opacity=".3" fill="url(#p)" d="M117.6 51c-2.4-7-21.7-14.9-40-14.9-8.9 0-16.5 1.7-22.8 4.6 18.8-3.2 32.8 8.4 28.9 23.9L117.6 51z"/><linearGradient id="q" gradientUnits="userSpaceOnUse" x1="103.595" y1="64.926" x2="114.552" y2="53.658"><stop offset="0" stop-color="#114C73"/><stop offset="1" stop-color="#114C73"/></linearGradient><path fill="url(#q)" d="M110.2 67.1c-.9.2-3.8-1.7-2.5-4.1 1.3-2.5 4.9-4.9 7.3-6.3 1.1-.6 2.4-3.7-1.8-3.9-4.1-.1-7.1 1.8-8.5 3.4-2.9 3.1-3.2 4.8-6.9 5.6 1.8 1.3 3.6-.4 5.1 2.4.7 1.1 2 4.5 7.3 2.9z"/><path fill="#004A75" d="M115.1 53.2c-.4-.2-1-.3-1.8-.4-4.1-.1-7.1 1.8-8.5 3.4-2.9 3.1-3.2 4.8-6.9 5.6 1.8 1.3 3.6-.4 5.1 2.4l12.1-11z"/><g><linearGradient id="r" gradientUnits="userSpaceOnUse" x1="102.846" y1="50.766" x2="97.585" y2="55.099"><stop offset="0" stop-color="#145D8C"/><stop offset="1" stop-color="#114C73" stop-opacity="0"/></linearGradient><path fill="url(#r)" d="M104.1 51.4c.1 1.3-.9 2.4-2.2 2.4-1.3.1-2.4-.9-2.4-2.2 0-.3 0-.6.1-.9 0 0 .4 2 2.1 2 1.9 0 2.3-2 2.3-2 0 .2.1.4.1.7z"/><linearGradient id="s" gradientUnits="userSpaceOnUse" x1="100.82" y1="52.995" x2="102.612" y2="48.309"><stop offset="0" stop-color="#0A4063"/><stop offset=".996" stop-color="#60A8CC"/></linearGradient><circle fill="url(#s)" cx="101.8" cy="50.5" r="2.3"/><radialGradient id="t" cx="101.763" cy="50.53" r="2.322" gradientUnits="userSpaceOnUse"><stop offset="0" stop-opacity="0"/><stop offset=".853" stop-opacity=".853"/><stop offset="1"/></radialGradient><circle opacity=".3" fill="url(#t)" cx="101.8" cy="50.5" r="2.3"/><circle fill="#9ECFEA" cx="101.2" cy="49.7" r=".9"/></g><g><linearGradient id="u" gradientUnits="userSpaceOnUse" x1="60.247" y1="94.685" x2="80.543" y2="83.254"><stop offset="0" stop-color="#357CAC"/><stop offset="1" stop-color="#628FAB"/></linearGradient><path fill="url(#u)" d="M58.7 93.7c5.9-4.7 12.6-7.5 20.2-7.9-6.8 1.6-12.6 5.7-17.3 10.6-.7-.7-2.2-2-2.9-2.7z"/><linearGradient id="v" gradientUnits="userSpaceOnUse" x1="64.347" y1="114.268" x2="59" y2="102.552"><stop offset="0" stop-color="#114C73"/><stop offset="1" stop-color="#0C3552"/></linearGradient><path fill="url(#v)" d="M68 118c-3.8-4.4-6.1-10.4-7.3-16.3l-4 .2c2.2 6.3 6.2 12 11.3 16.1z"/></g><g><linearGradient id="w" gradientUnits="userSpaceOnUse" x1="69.531" y1="60.02" x2="55.626" y2="67.216"><stop offset=".002" stop-color="#2E6B91"/><stop offset="1" stop-color="#3E81AB"/></linearGradient><path fill="url(#w)" d="M59.3 61c-.4.7-1 1.7-1.5 2.6h.1c.7.5 12.3 1.3 16.4-1.7-.2.1-.3-.2-.5-.2C70 63 63.3 62 59.3 61z"/><linearGradient id="x" gradientUnits="userSpaceOnUse" x1="107.214" y1="-26.09" x2="129.143" y2="-34.117" gradientTransform="matrix(.994 .111 -.111 .994 -56.81 74.599)"><stop offset="0" stop-color="#3A80B0"/><stop offset="1" stop-color="#10507A"/></linearGradient><path fill="url(#x)" d="M76.2 57.1c-1.6-5.7-11.3-8.4-20 3.1 10.5 3 20.2.3 20-3.1z"/><linearGradient id="y" gradientUnits="userSpaceOnUse" x1="56.161" y1="59.865" x2="76.433" y2="59.865"><stop offset="0" stop-color="#2C638A"/><stop offset="1" stop-color="#1B4564"/></linearGradient><path fill="url(#y)" d="M76.4 58.3c0-.4-.1-.9-.2-1.3.1 2.4-5.9 4.9-20 3.1.8.9 20.8 6.1 20.2-1.8z"/></g><linearGradient id="z" gradientUnits="userSpaceOnUse" x1="49.267" y1="101.811" x2="86.936" y2="75.264"><stop offset="0" stop-color="#114C73"/><stop offset=".625" stop-color="#2E6A91"/><stop offset=".826" stop-color="#367299" stop-opacity=".462"/><stop offset="1" stop-color="#417DA4" stop-opacity="0"/></linearGradient><path fill="url(#z)" d="M58.4 77c4.7-3.3 13.3-5.7 26.5-6.4l.3-5.4c-5.7-.5-12-.6-18.5.5C35.2 70.6 40.5 95 47.9 99c4.4 2.4 8.1 3.1 12.5 3.3 1.2 5.9 3.9 11.3 7.7 15.7 2.7-5.4 4-11.3 3.7-17.5 3.5-4.2 6-9.2 7.2-14.7-6.8 1.6-12.8 5.1-17.4 9.9-7.2-5.2-11.4-13.1-3.2-18.7z"/></svg>