<svg xmlns="http://www.w3.org/2000/svg" xmlns:xlink="http://www.w3.org/1999/xlink" viewBox="0 0 300 300"><linearGradient id="SVGID_1_" gradientUnits="userSpaceOnUse" x1="118.9079" y1="292.9391" x2="111.6998" y2="237.3945"><stop offset="0" stop-color="#72AECF"/><stop offset="1" stop-color="#1F6491"/></linearGradient><path fill="url(#SVGID_1_)" d="M91.2 218.4c-8.8 28.1 2.5 59.3 28.6 75 15-16.6 20.2-41.5 14.6-62.6l-43.2-12.4z"/><defs><path id="SVGID_2_" d="M91.2 218.4c-8.8 28.1 2.5 59.3 28.6 75 15-16.6 20.2-41.5 14.6-62.6l-43.2-12.4z"/></defs><clipPath id="SVGID_3_"><use xlink:href="#SVGID_2_" overflow="visible"/></clipPath><linearGradient id="SVGID_4_" gradientUnits="userSpaceOnUse" x1="104.787" y1="249.3204" x2="107.7551" y2="235.3281"><stop offset="1.824239e-03" stop-color="#166087"/><stop offset="1" stop-color="#104E78"/></linearGradient><path clip-path="url(#SVGID_3_)" fill="url(#SVGID_4_)" d="M86.6 214.2c7.2 2.5 14.4 5 21.5 7.5 8.6 3 17.1 6 25.7 8.9.1 0 .5.1.6.2.1.2-.4 1.2-.5 1.4-.3.7-.6 1.4-1 2.1-1.5 2.7-3.6 4.9-6 6.8-5.4 4.2-12.1 6.7-18.8 8.1-6.4 1.3-13.1 1.8-19.5.8-1.3-.2-2.7-.5-4-.9-.6-.2-.5-.2-.4-.7l.3-4.5c.7-9.7 1.4-19.3 2.1-29-.1-.3-.1-.5 0-.7z"/><linearGradient id="SVGID_5_" gradientUnits="userSpaceOnUse" x1="140.1347" y1="169.8834" x2="118.0864" y2="222.8839"><stop offset="0" stop-color="#72AECF"/><stop offset="1" stop-color="#1F6491"/></linearGradient><path fill="url(#SVGID_5_)" d="M91.2 218.4c8.5-27.1 32.7-46.8 65.8-42.6 2.5 23.9-4 41.6-22.7 55l-43.1-12.4z"/><g opacity="0.3"><defs><path id="SVGID_6_" opacity="0.3" d="M91.2 218.4c8.5-27.1 32.7-46.8 65.8-42.6 2.5 23.9-4 41.6-22.7 55l-43.1-12.4z"/></defs><clipPath id="SVGID_7_"><use xlink:href="#SVGID_6_" overflow="visible"/></clipPath><linearGradient id="SVGID_8_" gradientUnits="userSpaceOnUse" x1="157.566" y1="171.8207" x2="98.337" y2="210.5755"><stop offset="0" stop-color="#FFF"/><stop offset="1" stop-color="#FFF" stop-opacity="0"/></linearGradient><path clip-path="url(#SVGID_7_)" fill="url(#SVGID_8_)" d="M177.3 173.2c-12.4 0-24.7 3.1-35.6 9-10.5 5.7-19.6 14-26.2 23.9-3.8 5.6-6.8 11.8-9 18.3-7.1-5.2-14.1-10.5-21.2-15.7-1-.7-2-1.5-3-2.2 1.5-1.7 3-3.3 4.7-4.8 4.1-3.9 8.4-7.6 13-11 6.2-4.6 12.7-8.6 19.7-11.9 7.9-3.8 16.4-6.6 25.1-7.9 9.6-1.5 19.5-1.1 28.9 1.3 1.1.3 2.3.6 3.6 1-33.1 0-52.3-16.1 0 0z"/></g><linearGradient id="SVGID_9_" gradientUnits="userSpaceOnUse" x1="125.0688" y1="153.7374" x2="172.1333" y2="123.209"><stop offset="0" stop-color="#72AECF"/><stop offset="1" stop-color="#1F6491"/></linearGradient><path fill="url(#SVGID_9_)" d="M175.7 122.4c-5.9 14.3-15.4 27.1-27.3 37-3.4 2.8-7 5.3-10.8 7.6-4-9.1-6.4-18.9-6.7-28.9-.1-1.8 0-3.7 0-5.6 0-.8.1-1.6.1-2.4 0-.3-.1-1.5.1-1.7.1-.1.6-.1.8-.1.6-.1 1.2-.2 1.8-.2 10.6-1.4 21.2-2.9 31.9-4.3 3.4-.5 6.7-.9 10.1-1.4z"/><defs><path id="SVGID_10_" d="M175.7 122.4c-5.9 14.3-15.4 27.1-27.3 37-3.4 2.8-7 5.3-10.8 7.6-4-9.1-6.4-18.9-6.7-28.9-.1-1.8 0-3.7 0-5.6 0-.8.1-1.6.1-2.4 0-.3-.1-1.5.1-1.7.1-.1.6-.1.8-.1.6-.1 1.2-.2 1.8-.2 10.6-1.4 21.2-2.9 31.9-4.3 3.4-.5 6.7-.9 10.1-1.4z"/></defs><defs><path id="SVGID_11_" d="M175.7 122.4c-5.9 14.3-15.4 27.1-27.3 37-3.4 2.8-7 5.3-10.8 7.6-4-9.1-6.4-18.9-6.7-28.9-.1-1.8 0-3.7 0-5.6 0-.8.1-1.6.1-2.4 0-.3-.1-1.5.1-1.7.1-.1.6-.1.8-.1.6-.1 1.2-.2 1.8-.2 10.6-1.4 21.2-2.9 31.9-4.3 3.4-.5 6.7-.9 10.1-1.4z"/></defs><clipPath id="SVGID_12_"><use xlink:href="#SVGID_10_" overflow="visible"/></clipPath><clipPath id="SVGID_13_" clip-path="url(#SVGID_12_)"><use xlink:href="#SVGID_11_" overflow="visible"/></clipPath><linearGradient id="SVGID_14_" gradientUnits="userSpaceOnUse" x1="166.6563" y1="115.3073" x2="114.3459" y2="138.9018"><stop offset="0" stop-color="#0E476E"/><stop offset="1" stop-color="#4C89AB"/></linearGradient><path clip-path="url(#SVGID_13_)" fill="url(#SVGID_14_)" d="M131.7 146.9c9.3-8 20-13.9 31.6-17.8 3.7-1.3 7.5-2.4 11.3-3.3-.8-2-1.6-4.1-2.4-6.1-.6-1.4-1.1-2.9-1.7-4.3-.2-.5-.4-1-.6-1.4 0-.1-.2-.6-.3-.7-.3-.2-1.7.3-2 .3-1.9.3-3.8.7-5.7 1-12 2.1-24 4.2-36 6.2-3.3.6-6.6 1.1-9.9 1.7 4.6 7.2 9.2 14.3 13.8 21.5.6.9 1.2 1.9 1.9 2.9z"/><linearGradient id="SVGID_15_" gradientUnits="userSpaceOnUse" x1="44.2373" y1="-9.2342" x2="61.8148" y2="25.9451"><stop offset="0" stop-color="#88C3E3"/><stop offset="1" stop-color="#3077A6"/></linearGradient><path fill="url(#SVGID_15_)" d="M105.9 13.6C94.3 5.6 80.6 1.3 66.6.3 52.9-.7 39 1.3 26 5.6c-7 2.3-13.8 5.2-20.3 8.9 9.4 9 17.4 19.5 22.2 31.7 1.7 4.2 2.9 8.5 3.8 12.9 22.1-23.3 40.4-34.4 74.2-45.5-30.6-21-33.8 11.1 0 0z"/><linearGradient id="SVGID_16_" gradientUnits="userSpaceOnUse" x1="237.7081" y1="9.9002" x2="31.6591" y2="209.8889"><stop offset="0" stop-color="#7CAFCC"/><stop offset="1" stop-color="#2D72A1"/></linearGradient><path fill="url(#SVGID_16_)" d="M159.3 3c-14.4 0-28.8 1.3-43 4.1-12.4 2.5-24.6 6.3-36.2 11.4C69.6 23.2 59.6 29 50.5 35.9c-8.5 6.4-16.2 13.8-22.9 22-6.3 7.7-11.7 16.2-16.1 25.2-4.2 8.7-7.3 17.9-9.2 27.4C.4 119.6-.4 129 .1 138.3c.4 9.2 2 18.3 4.8 27.1 2.8 8.9 6.8 17.4 11.9 25.2 5.3 8.1 11.7 15.4 19.1 21.7 6 5.2 12.6 9.7 19.6 13.4 1 .5 2 1 3.1 1.5.3.2 2.2 1.3 2.4 1.1.1-.1.2-.4.2-.5.5-1.1 1-2.1 1.4-3.2 4-8.7 7.9-17.4 11.9-26.2 1.5-3.2 2.9-6.4 4.4-9.6.1-.3.4-.6.4-.9.1-.6-.4-1.2-.7-1.7-1.4-3-2.4-6.2-2.9-9.5-.9-6.8.8-13.5 4.8-19.1 4.1-5.7 9.9-9.9 15.9-13.3 10.4-5.9 21.9-9.6 33.5-12.3 16.7-4 33.9-5.9 51-7 17.1-1.1 34.3-1.3 51.5-.9 8.9.2 17.8.5 26.8.9l7.5.3c2.4.1 4.8.3 7.3.2 3.3-.1 6.8-.9 9.4-3.1 1.7-1.4 3-3.5 3.2-5.7.3-2.7-.9-5.1-3.7-5.5-2.9-.4-5.8.6-8.6 1.3-3.6.9-7.6 1.2-11-.7-2.8-1.6-4.6-4.5-6-7.3-1.4-2.7-2.3-5.7-2.6-8.7-.7-7.8 4-14.8 10.9-18.4 3.7-1.9 8-2.8 12.1-3.1 4.7-.4 9.4.1 14 1.2C332.1 49.1 242.9 3 159.3 3z"/><defs><filter id="Adobe_OpacityMaskFilter" filterUnits="userSpaceOnUse" x="25.3" y="3" width="276.5" height="144.5"><feColorMatrix values="1 0 0 0 0 0 1 0 0 0 0 0 1 0 0 0 0 0 1 0"/></filter></defs><mask maskUnits="userSpaceOnUse" x="25.3" y="3" width="276.5" height="144.5" id="SVGID_17_"><g filter="url(#Adobe_OpacityMaskFilter)"><radialGradient id="SVGID_18_" cx="233.6202" cy="94.0492" r="144.1539" gradientTransform="matrix(1 0 0 .696 0 28.618)" gradientUnits="userSpaceOnUse"><stop offset="0" stop-color="#FFF"/><stop offset="8.944844e-02" stop-color="#F8F8F8"/><stop offset="0.2165" stop-color="#E6E6E6"/><stop offset="0.3661" stop-color="#C7C7C7"/><stop offset="0.5329" stop-color="#9C9C9C"/><stop offset="0.7138" stop-color="#666"/><stop offset="0.9038" stop-color="#242424"/><stop offset="1"/></radialGradient><path fill="url(#SVGID_18_)" d="M159.3 3C95.8 3 50.7 27.6 25.1 61.1l66.4 86.4c16.9-11.6 47.4-20.4 94.7-22.8 29.7-1.5 51.1-.7 85.5.9 10.8.5 15-5.2 15-9.5 0-6.7-7.1-4.9-12-3.5-5.9 1.6-11.3 1-14.8-3.9-4.8-6.8-9.4-19.4 2.4-28.8 2.5-2 5.5-3.4 8.6-4.2 6.1-1.5 13.1-1.8 20.9.1C332.1 49.1 242.9 3 159.3 3z"/></g></mask><linearGradient id="SVGID_19_" gradientUnits="userSpaceOnUse" x1="163.572" y1="63.9285" x2="163.572" y2="116.924"><stop offset="0" stop-color="#4786AF" stop-opacity="0"/><stop offset="1" stop-color="#347199"/></linearGradient><path mask="url(#SVGID_17_)" fill="url(#SVGID_19_)" d="M159.3 3c-13.1 0-26.3 1.1-39.2 3.4-11.5 2.1-22.9 5.2-33.8 9.5-9.9 3.9-19.3 8.7-28.2 14.6-8.2 5.4-15.9 11.7-22.8 18.8-3.3 3.4-6.4 6.9-9.3 10.6-.2.2-.8.8-.8 1.1 0 .1.1.1.1.2.1.3.5.6.7.9 2.2 2.9 4.5 5.9 6.7 8.8 3.9 5 7.7 10.1 11.6 15.1 4.7 6.1 9.3 12.2 14 18.3 4.6 6.1 9.3 12.1 13.9 18.2 3.9 5.1 7.7 10.1 11.6 15.2 2.3 3 4.5 5.9 6.8 8.9.2.3.4.7.7.9.4.3.1.3.7-.1 3-2 6.2-3.8 9.4-5.3 8.2-4 16.8-6.8 25.6-9 11.5-2.9 23.3-4.8 35.2-6.1 13.6-1.5 27.4-2.2 41.1-2.5 12.3-.3 24.7-.2 37 .2 6.8.2 13.6.5 20.4.8 3.8.2 7.5.4 11.3.5 2.8.1 5.8-.2 8.4-1.3 3.2-1.4 6.1-4.2 6.2-7.9.1-1.9-.5-3.9-2.4-4.7-1.8-.8-4-.4-5.9 0-2.5.5-4.8 1.4-7.4 1.6-2.7.3-5.4-.1-7.8-1.5-3.8-2.3-6.3-7.4-7.5-11.6-1.4-4.7-1.2-9.7 1.1-14.1 3.1-5.7 8.9-9.4 15.1-10.8 6.6-1.5 13.4-1.3 19.9.4C332.1 49.1 242.9 3 159.3 3z"/><defs><filter id="Adobe_OpacityMaskFilter_1_" filterUnits="userSpaceOnUse" x="0" y="3" width="301.8" height="225.5"><feColorMatrix values="1 0 0 0 0 0 1 0 0 0 0 0 1 0 0 0 0 0 1 0"/></filter></defs><mask maskUnits="userSpaceOnUse" x="0" y="3" width="301.8" height="225.5" id="SVGID_20_"><g filter="url(#Adobe_OpacityMaskFilter_1_)"><linearGradient id="SVGID_21_" gradientUnits="userSpaceOnUse" x1="65.4395" y1="155.2791" x2="240.4311" y2="24.2248"><stop offset="0"/><stop offset="0.1659" stop-color="#424242"/><stop offset="0.3316" stop-color="#7B7B7B"/><stop offset="0.4902" stop-color="#AAA"/><stop offset="0.64" stop-color="#CFCFCF"/><stop offset="0.779" stop-color="#E9E9E9"/><stop offset="0.9031" stop-color="#F9F9F9"/><stop offset="1" stop-color="#FFF"/></linearGradient><path fill="url(#SVGID_21_)" d="M159.3 3C2.7 3-41.6 152.6 40.4 216.1c6.4 5 13.3 9 20.4 12.2l18.6-40.7c-6.7-13.6-5.4-28 12.2-40.1 16.9-11.6 47.4-20.4 94.7-22.8 29.7-1.5 51.1-.7 85.5.9 10.8.5 15-5.2 15-9.5 0-6.7-7.1-4.9-12-3.5-5.9 1.6-11.3 1-14.8-3.9-4.8-6.8-9.4-19.4 2.4-28.8 2.5-2 5.5-3.4 8.6-4.2 6.1-1.5 13.1-1.8 20.9.1C332.1 49.1 242.9 3 159.3 3z"/></g></mask><radialGradient id="SVGID_22_" cx="162.0119" cy="113.3384" r="162.7038" gradientTransform="matrix(1 0 0 .677 0 36.633)" gradientUnits="userSpaceOnUse"><stop offset="0.7057" stop-color="#FFF" stop-opacity="0"/><stop offset="1" stop-color="#FFF"/></radialGradient><path opacity="0.5" mask="url(#SVGID_20_)" fill="url(#SVGID_22_)" d="M159.3 3c-14.4 0-28.8 1.3-43 4.1-12.4 2.5-24.6 6.3-36.2 11.4C69.6 23.2 59.6 29 50.5 35.9c-8.5 6.4-16.2 13.8-22.9 22-6.3 7.7-11.7 16.2-16.1 25.2-4.2 8.7-7.3 17.9-9.2 27.4C.4 119.6-.4 129 .1 138.3c.4 9.2 2 18.3 4.8 27.1 2.8 8.9 6.8 17.4 11.9 25.2 5.3 8.1 11.7 15.4 19.1 21.7 6 5.2 12.6 9.7 19.6 13.4 1 .5 2 1 3.1 1.5.3.2 2.2 1.3 2.4 1.1.1-.1.2-.4.2-.5.5-1.1 1-2.1 1.4-3.2 4-8.7 7.9-17.4 11.9-26.2 1.5-3.2 2.9-6.4 4.4-9.6.1-.3.4-.6.4-.9.1-.6-.4-1.2-.7-1.7-1.4-3-2.4-6.2-2.9-9.5-.9-6.8.8-13.5 4.8-19.1 4.1-5.7 9.8-9.9 15.9-13.3 10.4-5.9 21.9-9.6 33.5-12.3 16.7-4 33.9-5.9 51-7 17.1-1.1 34.3-1.3 51.5-.9 8.9.2 17.8.5 26.8.9l7.5.3c2.4.1 4.8.3 7.3.2 3.3-.1 6.8-.9 9.4-3.1 1.7-1.4 3-3.5 3.2-5.7.3-2.7-.9-5.1-3.7-5.5-2.9-.4-5.8.6-8.6 1.3-3.6.9-7.6 1.2-11-.7-2.8-1.6-4.6-4.5-6-7.3-1.4-2.7-2.3-5.7-2.6-8.7-.7-7.8 4-14.8 10.9-18.4 3.7-1.9 8-2.8 12.1-3.1 4.7-.4 9.4.1 14 1.2C332.1 49.1 242.9 3 159.3 3z"/><linearGradient id="SVGID_23_" gradientUnits="userSpaceOnUse" x1="171.5447" y1="-11.8239" x2="204.52" y2="77.1096"><stop offset="0" stop-color="#FFF"/><stop offset="1" stop-color="#FFF" stop-opacity="0"/></linearGradient><path opacity="0.3" fill="url(#SVGID_23_)" d="M300.9 55.6c-1.4-4.1-4.1-7.6-7.1-10.7-3.9-4-8.4-7.4-13.1-10.4-12.4-8-26.3-13.8-40.3-18.4-16.8-5.5-34.1-9.3-51.6-11.4-18.6-2.2-37.4-2.5-56-.3-16.8 2-33.4 6-49 12.4-1.7.7-3.5 1.5-5.2 2.3 12.1-2 24.5-2.5 36.7-.9 10.6 1.4 21.1 4.4 30.6 9.3 8.6 4.4 16.5 10.4 22.7 17.9 6 7.2 10.4 15.6 12.7 24.6 2.4 9.7 2.4 19.9.5 29.7-.3 1.3-.5 2.6-.9 3.9l12-4.8c9.5-3.8 19.1-7.6 28.6-11.5 11.5-4.6 23.1-9.2 34.6-13.8l30-12c4.9-1.9 9.7-3.9 14.6-5.8.1 0 .1 0 .2-.1z"/><defs><filter id="Adobe_OpacityMaskFilter_2_" filterUnits="userSpaceOnUse" x="34.4" y="104.5" width="151.9" height="132.6"><feColorMatrix values="1 0 0 0 0 0 1 0 0 0 0 0 1 0 0 0 0 0 1 0"/></filter></defs><mask maskUnits="userSpaceOnUse" x="34.4" y="104.5" width="151.9" height="132.6" id="SVGID_24_"><g filter="url(#Adobe_OpacityMaskFilter_2_)"><linearGradient id="SVGID_25_" gradientUnits="userSpaceOnUse" x1="192.9151" y1="134.9324" x2="147.5719" y2="155.2853"><stop offset="0"/><stop offset="0.1659" stop-color="#424242"/><stop offset="0.3316" stop-color="#7B7B7B"/><stop offset="0.4902" stop-color="#AAA"/><stop offset="0.64" stop-color="#CFCFCF"/><stop offset="0.779" stop-color="#E9E9E9"/><stop offset="0.9031" stop-color="#F9F9F9"/><stop offset="1" stop-color="#FFF"/></linearGradient><path fill="url(#SVGID_25_)" d="M185.1 124.8c-44.9 4.7-71.1 12.7-87.8 24.2-43.5 29.8 7.1 73 37.1 81.8-8.5 3.6-17.3 8.3-25.5 9-22 1.9-46-7.5-59.1-14.6-26-14.1-40.2-103.5 71-120.8 23.2-3.6 45.4-.4 65.5 1.4l-1.2 19z"/></g></mask><linearGradient id="SVGID_26_" gradientUnits="userSpaceOnUse" x1="56.5664" y1="211.4775" x2="183.2674" y2="116.1062"><stop offset="0" stop-color="#114C73"/><stop offset="1" stop-color="#417DA4"/></linearGradient><path mask="url(#SVGID_24_)" fill="url(#SVGID_26_)" d="M185.1 124.8c-19.1 1-38.3 3.1-56.8 7.7-12.3 3-24.8 7.2-35.5 14.2-5.8 3.8-11.2 8.5-14.4 14.7-2.6 5.1-3.4 10.9-2.4 16.5 2.3 12.6 11.7 23.2 21.1 31.4 9.8 8.5 21.2 15.8 33.4 20.2 1.2.5 2.5.9 3.8 1.3-17.6 7.3-37.9 8-56.3 3.5-7.7-1.9-15.1-4.6-22.2-8.3-2.5-1.3-4.8-2.8-6.8-4.7-4.1-3.9-7.2-9-9.5-14.2-2.7-6.2-4.4-13-4.9-19.8-.6-7.6 0-15.3 2.1-22.6 2.3-8.2 6.3-15.8 11.7-22.5 6.5-8 14.7-14.4 23.6-19.4 11.8-6.6 24.9-10.8 38.1-13.6 18.8-4 38.1-5.3 57.2-4.7 4.7.1 9.4.4 14.1.8 1 .1 2.1.2 3.1.3.3 0 1.6 0 1.7.2.1.3-.1 1.2-.1 1.5-.3 4.7-.6 9.4-.9 14 .1 1.3 0 2.4-.1 3.5z"/><linearGradient id="SVGID_27_" gradientUnits="userSpaceOnUse" x1="251.3871" y1="104.8232" x2="290.1515" y2="64.9617"><stop offset="0" stop-color="#3881A6"/><stop offset="1" stop-color="#114C73"/></linearGradient><path fill="url(#SVGID_27_)" d="M274.7 112.6c-1.4.3-3-.5-4.1-1.2-1.7-1-3.3-2.5-4.4-4.2-1.2-1.9-1.7-4.1-1.4-6.2.4-2.6 2-4.9 3.6-7 3.7-4.8 8.6-8.6 13.6-12.1 2.5-1.7 5.1-3.4 7.7-5 1.4-.8 2.8-1.5 3.8-2.8 1.6-2 2.7-4.9 1.8-7.4-1.3-3.9-6.4-4.6-9.9-4.7-10.8-.3-21.9 3.6-29.5 11.4-3.7 3.7-6.7 8-10.2 11.9-3 3.3-6.4 5.8-10.6 7.3-1.3.5-2.6.8-4 1.2 3.2 2.3 6.8 1.7 10.5 2.3 3.9.6 6.2 3.5 8 6.9 2.4 4.5 5.4 8.5 10.5 10.1 4.8 1.6 9.9.9 14.6-.5-3.3.6-18.7 5.5 0 0z"/><linearGradient id="SVGID_28_" gradientUnits="userSpaceOnUse" x1="248.8429" y1="107.31" x2="269.8294" y2="86.3936"><stop offset="0" stop-color="#114C73"/><stop offset="1" stop-color="#114C73" stop-opacity="0"/></linearGradient><path fill="url(#SVGID_28_)" d="M274.7 112.6c-1.4.3-3-.5-4.1-1.2-1.7-1-3.3-2.5-4.4-4.2-1.2-1.9-1.7-4.1-1.4-6.2.4-2.6 2-4.9 3.6-7 3.7-4.8 8.6-8.6 13.6-12.1 2.5-1.7 5.1-3.4 7.7-5 1.4-.8 2.8-1.5 3.8-2.8 1.6-2 2.7-4.9 1.8-7.4-1.3-3.9-6.4-4.6-9.9-4.7-10.8-.3-21.9 3.6-29.5 11.4-3.7 3.7-6.7 8-10.2 11.9-3 3.3-6.4 5.8-10.6 7.3-1.3.5-2.6.8-4 1.2 3.2 2.3 6.8 1.7 10.5 2.3 3.9.6 6.2 3.5 8 6.9 2.4 4.5 5.4 8.5 10.5 10.1 4.8 1.6 9.9.9 14.6-.5-3.3.6-18.7 5.5 0 0z"/><linearGradient id="SVGID_29_" gradientUnits="userSpaceOnUse" x1="254.7425" y1="71.2205" x2="262.7933" y2="79.4544"><stop offset="0" stop-color="#114C73"/><stop offset="1" stop-color="#114C73" stop-opacity="0"/></linearGradient><path fill="url(#SVGID_29_)" d="M274.7 112.6c-1.4.3-3-.5-4.1-1.2-1.7-1-3.3-2.5-4.4-4.2-1.2-1.9-1.7-4.1-1.4-6.2.4-2.6 2-4.9 3.6-7 3.7-4.8 8.6-8.6 13.6-12.1 2.5-1.7 5.1-3.4 7.7-5 1.4-.8 2.8-1.5 3.8-2.8 1.6-2 2.7-4.9 1.8-7.4-1.3-3.9-6.4-4.6-9.9-4.7-10.8-.3-21.9 3.6-29.5 11.4-3.7 3.7-6.7 8-10.2 11.9-3 3.3-6.4 5.8-10.6 7.3-1.3.5-2.6.8-4 1.2 3.2 2.3 6.8 1.7 10.5 2.3 3.9.6 6.2 3.5 8 6.9 2.4 4.5 5.4 8.5 10.5 10.1 4.8 1.6 9.9.9 14.6-.5-3.3.6-18.7 5.5 0 0z"/><linearGradient id="SVGID_30_" gradientUnits="userSpaceOnUse" x1="107.6325" y1="72.1263" x2="100.3205" y2="108.6859" gradientTransform="matrix(.866 -.082 .162 .979 9.843 13.485)"><stop offset="0" stop-color="#114C73"/><stop offset="1" stop-color="#114C73" stop-opacity="0"/></linearGradient><path opacity="0.7" fill="url(#SVGID_30_)" d="M83.4 100.9c6.7-2.6 13.5-4.8 20.5-6.2 6-1.2 12.1-1.6 18.2-1.8 3.5-.1 7-.1 10.5-.1 3 0 6.4.4 9.1-1.2 4.6-2.7 4.6-8.8 3-13.2-2.4-6.8-8.7-10.6-15.6-11.2-8.5-.8-17.1 2.3-24.2 6.7C96.2 79.3 89.2 87.5 85 97c-.6 1.2-1.1 2.5-1.6 3.9 21.3-8.3 12-33.9 0 0z"/><linearGradient id="SVGID_31_" gradientUnits="userSpaceOnUse" x1="76.5751" y1="78.1754" x2="148.1223" y2="78.1754"><stop offset="0" stop-color="#3A80B0"/><stop offset="1" stop-color="#10507A"/></linearGradient><path fill="url(#SVGID_31_)" d="M76.6 88.2c7.5-1 15.1-1.7 22.7-1.5 6.4.1 12.8.9 19.2 2.1 3.5.6 6.9 1.3 10.4 2s7.2 2 10.8 1.6c5.7-.7 8.6-6.1 8.5-11.4-.2-7.8-6.1-13.1-13.2-15.4-8.9-2.8-18.9-1.8-27.7.9-10.7 3.3-20.6 9.6-27.9 18.2-1 1.1-1.9 2.3-2.8 3.5 24.8-3.3 22-30.4 0 0z"/><defs><path id="SVGID_32_" d="M76.6 88.2c7.5-1 15.1-1.7 22.7-1.5 6.4.1 12.8.9 19.2 2.1 3.5.6 6.9 1.3 10.4 2s7.2 2 10.8 1.6c5.7-.7 8.6-6.1 8.5-11.4-.2-7.8-6.1-13.1-13.2-15.4-8.9-2.8-18.9-1.8-27.7.9-10.7 3.3-20.6 9.6-27.9 18.2-1 1.1-1.9 2.3-2.8 3.5 24.8-3.3 22-30.4 0 0z"/></defs><clipPath id="SVGID_33_"><use xlink:href="#SVGID_32_" overflow="visible"/></clipPath><linearGradient id="SVGID_34_" gradientUnits="userSpaceOnUse" x1="76.1894" y1="106.2038" x2="142.7581" y2="107.3345"><stop offset="0" stop-color="#295B7D"/><stop offset="1" stop-color="#10507A"/></linearGradient><path clip-path="url(#SVGID_33_)" fill="url(#SVGID_34_)" d="M154.6 92.5c-10.8-6.7-23.2-10.8-35.8-11.9-12.8-1.1-25.8.8-37.6 5.6-2.9 1.2-5.7 2.5-8.4 4-1.4.7-2.7 1.5-4 2.3-.6.4-1.9.9-2.4 1.6-.2.3-.3.9-.4 1.3-.3 1-.5 1.9-.8 2.9-1.9 6.5-3.7 12.9-5.6 19.4l-2.7 9.3-.9 3.3c-.1.5-.5 1.3-.5 1.8 0 .1 0 .2-.1.2 3.3-1.3 6.6-2.7 9.9-4 7.9-3.2 15.7-6.3 23.6-9.5 9.6-3.8 19.2-7.7 28.7-11.5 8.2-3.3 16.5-6.6 24.7-9.9 4-1.6 8-3.2 12.1-4.8.1 0 .2-.1.2-.1z"/><linearGradient id="SVGID_35_" gradientUnits="userSpaceOnUse" x1="241.5745" y1="62.6095" x2="247.9038" y2="46.0559"><stop offset="0" stop-color="#0A4063"/><stop offset="1" stop-color="#4E88A6"/></linearGradient><path fill="url(#SVGID_35_)" d="M253.1 53.6c.1 3.4-2 6.7-5.1 7.9-3.2 1.3-6.9.4-9.2-2.1-2.3-2.6-2.8-6.5-1.1-9.5 1.7-3 5.1-4.6 8.5-4.1 3.8.6 6.8 3.9 6.9 7.8z"/><radialGradient id="SVGID_36_" cx="244.9139" cy="53.9062" r="8.2073" gradientUnits="userSpaceOnUse"><stop offset="0" stop-opacity="0"/><stop offset="0.8529" stop-opacity="0.8529"/><stop offset="1"/></radialGradient><path opacity="0.3" fill="url(#SVGID_36_)" d="M253.1 53.6c.1 3.4-2 6.7-5.1 7.9-3.2 1.3-6.9.4-9.2-2.1-2.3-2.6-2.8-6.5-1.1-9.5 1.7-3 5.1-4.6 8.5-4.1 3.8.6 6.8 3.9 6.9 7.8z"/><linearGradient id="SVGID_37_" gradientUnits="userSpaceOnUse" x1="251.3934" y1="47.4214" x2="245.1839" y2="53.6309"><stop offset="0" stop-color="#FFF"/><stop offset="1" stop-color="#FFF" stop-opacity="0"/></linearGradient><path opacity="0.6" fill="url(#SVGID_37_)" d="M244.6 45.7c-3 .1-5.5 1.8-6.9 4.3 6.7-3.1 14.2 3.2 12.3 10.3 2.9-2.3 3.9-6.4 2.4-9.7-1.3-3.1-4.5-5-7.8-4.9-3 .1 4.5-.2 0 0z"/><path opacity="0.7" fill="#FFF" d="M246 50.8c0-3.9-6-3.9-6 0s6 3.9 6 0z"/><path opacity="0.5" fill="#FFF" d="M246 50.8c0-3.9-6-3.9-6 0s6 3.9 6 0z"/><linearGradient id="SVGID_38_" gradientUnits="userSpaceOnUse" x1="251.3486" y1="52.9162" x2="235.1622" y2="66.7902"><stop offset="0" stop-color="#114C73"/><stop offset="1" stop-color="#114C73" stop-opacity="0"/></linearGradient><path opacity="0.6" fill="url(#SVGID_38_)" d="M254.6 56.9c.1 3.4-2 6.7-5.1 7.9-3.2 1.3-6.9.4-9.2-2.1-2.3-2.6-2.8-6.5-1.1-9.5 1.7-3 5.1-4.6 8.5-4.1 3.8.6 6.7 3.9 6.9 7.8z"/><linearGradient id="SVGID_39_" gradientUnits="userSpaceOnUse" x1="241.5745" y1="62.6095" x2="247.9038" y2="46.0559"><stop offset="0" stop-color="#0A4063"/><stop offset="1" stop-color="#4E88A6"/></linearGradient><path fill="url(#SVGID_39_)" d="M253.1 53.6c.1 3.4-2 6.7-5.1 7.9-3.2 1.3-6.9.4-9.2-2.1-2.3-2.6-2.8-6.5-1.1-9.5 1.7-3 5.1-4.6 8.5-4.1 3.8.6 6.8 3.9 6.9 7.8z"/><radialGradient id="SVGID_40_" cx="244.9139" cy="53.9063" r="8.2073" gradientUnits="userSpaceOnUse"><stop offset="0" stop-opacity="0"/><stop offset="0.8529" stop-opacity="0.8529"/><stop offset="1"/></radialGradient><path opacity="0.3" fill="url(#SVGID_40_)" d="M253.1 53.6c.1 3.4-2 6.7-5.1 7.9-3.2 1.3-6.9.4-9.2-2.1-2.3-2.6-2.8-6.5-1.1-9.5 1.7-3 5.1-4.6 8.5-4.1 3.8.6 6.8 3.9 6.9 7.8z"/><g><defs><path id="SVGID_41_" d="M253.1 53.6c.1 3.4-2 6.7-5.1 7.9-3.2 1.3-6.9.4-9.2-2.1-2.3-2.6-2.8-6.5-1.1-9.5 1.7-3 5.1-4.6 8.5-4.1 3.8.6 6.8 3.9 6.9 7.8z"/></defs><clipPath id="SVGID_42_"><use xlink:href="#SVGID_41_" overflow="visible"/></clipPath><linearGradient id="SVGID_43_" gradientUnits="userSpaceOnUse" x1="-210.544" y1="103.3179" x2="-218.1966" y2="116.5278" gradientTransform="matrix(-.929 -.369 .369 -.929 6.598 76.293)"><stop offset="0" stop-color="#FFF"/><stop offset="1" stop-color="#FFF" stop-opacity="0"/></linearGradient><path opacity="0.3" clip-path="url(#SVGID_42_)" fill="url(#SVGID_43_)" d="M255 61.7c2-5.1-1-10.9-6.3-12.2-5.5-1.4-11.1 2.9-11.2 8.6-2.1-3.7-4.3-10.6.6-13.1 2-1 4.2-1.7 6.3-2.2 1.9-.5 3.9-.8 5.8-.5 4.5.7 5.9 5.3 6.1 9.3.3 3.3-.2 6.8-1.3 10.1z"/></g><linearGradient id="SVGID_44_" gradientUnits="userSpaceOnUse" x1="244.0536" y1="53.4231" x2="241.5512" y2="46.7502"><stop offset="0" stop-color="#FFF" stop-opacity="0"/><stop offset="1" stop-color="#FFF"/></linearGradient><path opacity="0.6" fill="url(#SVGID_44_)" d="M245.9 50.2c0-3.9-6-3.9-6 0-.1 3.9 6 3.9 6 0z"/><defs><filter id="Adobe_OpacityMaskFilter_3_" filterUnits="userSpaceOnUse" x="34.4" y="136.4" width="99.9" height="100.7"><feColorMatrix values="1 0 0 0 0 0 1 0 0 0 0 0 1 0 0 0 0 0 1 0"/></filter></defs><mask maskUnits="userSpaceOnUse" x="34.4" y="136.4" width="99.9" height="100.7" id="SVGID_45_"><g filter="url(#Adobe_OpacityMaskFilter_3_)"><linearGradient id="SVGID_46_" gradientUnits="userSpaceOnUse" x1="192.9151" y1="134.9324" x2="147.5719" y2="155.2853"><stop offset="0"/><stop offset="0.1659" stop-color="#424242"/><stop offset="0.3316" stop-color="#7B7B7B"/><stop offset="0.4902" stop-color="#AAA"/><stop offset="0.64" stop-color="#CFCFCF"/><stop offset="0.779" stop-color="#E9E9E9"/><stop offset="0.9031" stop-color="#F9F9F9"/><stop offset="1" stop-color="#FFF"/></linearGradient><path fill="url(#SVGID_46_)" d="M185.1 124.8c-44.9 4.7-71.1 12.7-87.8 24.2-43.5 29.8 7.1 73 37.1 81.8-8.5 3.6-17.3 8.3-25.5 9-22 1.9-46-7.5-59.1-14.6-26-14.1-40.2-103.5 71-120.8 23.2-3.6 45.4-.4 65.5 1.4l-1.2 19z"/></g></mask><linearGradient id="SVGID_47_" gradientUnits="userSpaceOnUse" x1="135.3275" y1="224.2691" x2="69.9468" y2="184.5485"><stop offset="0" stop-color="#003659"/><stop offset="1" stop-color="#003659" stop-opacity="0"/></linearGradient><path mask="url(#SVGID_45_)" fill="url(#SVGID_47_)" d="M91.5 147.5c-43.5 29.8 12.8 74.5 42.8 83.3-20.6 8.6-44.7 8-65.6.8-4.3-1.5-8.6-3.3-12.6-5.4-2.5-1.3-4.7-2.7-6.8-4.6-4.4-4.1-7.6-9.3-9.9-14.8-6-14-6.6-30.2-1.9-44.6 2.8-8.6 7.6-16.5 13.8-23.2.4-.4.8-.8 1.2-1.3.3-.3 1-1.3 1.4-1.4.1 0 .1.1.2.1.4 0 1 .3 1.4.4 1.9.6 3.8 1.1 5.7 1.7 9.9 2.9 19.8 5.8 29.7 8.8.2.1.4.2.6.2z"/></svg>